<svg width="163" height="33" viewBox="0 0 163 33" fill="none" xmlns="http://www.w3.org/2000/svg">
<path fill-rule="evenodd" clip-rule="evenodd" d="M115.862 3.63172C115.862 1.5166 117.656 0 119.747 0C121.838 0 123.468 1.5166 123.468 3.63172C123.468 5.74683 121.838 7.2285 119.747 7.2285C117.656 7.2285 115.862 5.7474 115.862 3.63172ZM116.77 9.73136H122.688V28.3126H116.77V9.73136ZM85.1713 2.53902H91.0903V28.3121H85.1713V2.53902ZM49.8669 28.7714C55.2896 28.7714 59.1527 24.6105 59.1527 19.0401C59.1527 13.4691 55.3961 9.30874 50.0068 9.30931C47.9883 9.30931 46.287 9.90839 44.9404 11.0367V2.53957H39.0214V28.3127H44.4798V26.7262C45.8265 28.0309 47.6342 28.7714 49.8669 28.7714ZM49.0165 14.4582C51.4973 14.4582 53.3045 16.3958 53.3045 19.0401C53.3045 21.6844 51.4973 23.5882 49.0165 23.5882C46.4292 23.5882 44.6566 21.7193 44.6566 19.0401C44.6566 16.3265 46.3935 14.4582 49.0165 14.4582ZM81.2683 28.3126V9.7313H75.8099V11.6706C74.4984 10.3665 72.7257 9.66085 70.4228 9.66085C65.0001 9.66085 61.1013 13.4695 61.1013 19.04C61.1013 24.6104 65.0001 28.7713 70.4228 28.7713C72.7263 28.7713 74.4984 27.9947 75.8099 26.6201V28.3126H81.2683ZM71.2738 14.4581C73.8611 14.4581 75.598 16.3246 75.598 19.04C75.598 21.7198 73.8605 23.5881 71.2738 23.5881C68.7579 23.5881 66.9852 21.6826 66.9852 19.04C66.9852 16.3974 68.793 14.4581 71.2738 14.4581ZM103.889 9.30869C97.9344 9.30869 93.681 13.469 93.681 19.04C93.681 24.5755 97.9362 28.7714 103.889 28.7714C109.878 28.7714 114.131 24.5755 114.131 19.04C114.131 13.469 109.876 9.30869 103.889 9.30869ZM103.924 14.5269C106.511 14.5269 108.177 16.3602 108.177 19.0045C108.177 21.6844 106.476 23.5526 103.924 23.5532C101.336 23.5532 99.6351 21.6489 99.6351 19.04C99.6351 16.3596 101.336 14.5269 103.924 14.5269ZM129.989 21.9311L125.098 23.8C126.197 27.0462 129.209 28.7713 133.425 28.7679C138.351 28.7679 141.47 26.4408 141.47 22.5972C141.47 18.3799 137.764 17.4062 134.923 16.6596C133.156 16.1954 131.724 15.819 131.724 14.8051C131.724 14.0297 132.326 13.5715 133.531 13.5715C134.771 13.5715 135.658 14.1706 136.083 15.3344L140.977 13.43C140.232 10.8223 137.468 9.30631 133.64 9.30631C128.926 9.30631 125.949 11.4947 125.949 15.0909C125.949 18.8957 129.413 19.9307 132.212 20.7665C134.106 21.3326 135.696 21.8072 135.696 22.989C135.696 23.8349 134.987 24.3635 133.64 24.3635C131.726 24.3635 130.485 23.4827 129.989 21.9311ZM162.525 18.6522C162.525 14.0703 158.91 9.27311 152.814 9.27311C147.426 9.27311 143.102 13.6832 143.102 19.04C143.102 24.5755 147.001 28.7713 153.168 28.7713C157.238 28.7713 159.642 27.2112 161.083 25.4323L157.679 22.0394C156.616 23.3475 155.437 23.9758 153.345 23.9758C151.112 23.9758 149.447 22.8475 148.844 20.7685H162.383C162.481 20.0673 162.528 19.3601 162.525 18.6522ZM148.773 17.1007C149.269 14.8441 150.793 13.6803 152.955 13.6803C155.116 13.6803 156.534 14.985 157.031 17.1007H148.773ZM17.2454 1.05552L32.1082 15.8413C32.238 15.9705 32.3409 16.124 32.4111 16.2928C32.4813 16.4616 32.5173 16.6426 32.5171 16.8253C32.517 17.008 32.4806 17.1889 32.4102 17.3576C32.3397 17.5263 32.2365 17.6796 32.1065 17.8086L28.0764 21.8178L16.2574 10.0601L9.45813 16.8241L16.2574 23.5881L20.4729 19.3939L25.4932 24.3876L17.2482 32.5926C17.1185 32.7218 16.9644 32.8242 16.7949 32.8941C16.6253 32.964 16.4435 33 16.26 33C16.0765 33 15.8947 32.964 15.7252 32.8941C15.5556 32.8242 15.4015 32.7218 15.2718 32.5926L0.40893 17.8069C0.147083 17.5462 0 17.1927 0 16.8241C0 16.4555 0.147083 16.102 0.40893 15.8413L15.2689 1.05552C15.3987 0.926386 15.5527 0.823945 15.7223 0.754053C15.8918 0.684162 16.0736 0.64819 16.2571 0.64819C16.4407 0.64819 16.6224 0.684162 16.792 0.754053C16.9615 0.823945 17.1156 0.926386 17.2454 1.05552Z" fill="white"/>
</svg>
