<svg viewBox="0 0 200 46" xmlns="http://www.w3.org/2000/svg"><path fill="currentColor" d="m104.7 38.13c-.23-.26-.34-.7-.34-1.31v-5.1h2.29v-2.09h-2.3v-2.83h-2.96v2.83h-1.83v2.08h1.83v5.42c0 1.24.28 2.15.85 2.7.57.54 1.52.81 2.78.81.59 0 1.2-.07 1.65-.2v-2c-.21.05-.51.09-.8.09-.53 0-.95-.14-1.18-.4zm-5.6-17.59h3.11v-15.18h-3.1v15.18zm-4.88 8.94c-.68 0-1.36.14-1.91.43-.55.3-1.03.71-1.4 1.21l-.11.17v-1.56h-2.8v10.91h3v-5.84c0-.97.2-1.74.6-2.25.4-.52.97-.77 1.63-.77.62 0 1.13.21 1.48.62.35.4.5 1.03.5 1.84v6.4h3.01v-6.6c0-1.45-.27-2.66-.99-3.42-.76-.8-1.7-1.14-3-1.14zm64.24 8.48a2.1 2.1 0 0 1 -1.83.9c-.72 0-1.33-.29-1.76-.91a4.7 4.7 0 0 1 -.66-2.65c0-1.1.22-2.03.66-2.65a2.07 2.07 0 0 1 1.76-.94c.75 0 1.38.29 1.83.93.45.63.64 1.6.64 2.66s-.2 2.02-.64 2.66zm1.63-7.73a4.05 4.05 0 0 0 -2.38-.68c-.62 0-1.22.14-1.77.42s-1 .67-1.32 1.17l-.01.02-.1.17v-5.87h-2.96v15.34h2.88v-1.62l.1.17v.01c.33.55.78.97 1.33 1.27.56.3 1.17.46 1.81.46a4.1 4.1 0 0 0 4-2.72c.37-.86.54-1.9.54-3.05s-.17-2.19-.53-3.06a4.34 4.34 0 0 0 -1.59-2.03zm-66.46-11.53c-.29.19-.78.34-1.32.34-.65 0-1.23-.2-1.58-.5-.34-.3-.52-.79-.53-1.32h-3.1c.03 1.27.44 2.17 1.31 2.82.88.64 2.25.94 3.84.94 1.52 0 2.84-.28 3.74-.9a3 3 0 0 0 1.33-2.54c0-.82-.21-1.4-.6-1.86-.33-.4-.94-.72-1.43-.9-.55-.2-1.36-.45-2.31-.7-.67-.16-1.22-.32-1.54-.42-.31-.1-.56-.26-.72-.42-.17-.16-.28-.5-.28-.77 0-.33.16-.69.44-.88.27-.19.73-.35 1.23-.35 1.23 0 1.9.62 1.9 1.72h2.95a3.22 3.22 0 0 0 -1.27-2.68c-.82-.63-2.09-.91-3.58-.91-.93 0-1.82.14-2.53.41s-1.29.7-1.67 1.2c-.4.51-.59 1.09-.59 1.73 0 .78.21 1.34.57 1.77.36.44.86.7 1.35.9.5.21 1.2.42 2.08.64.74.19 1.34.36 1.66.46.34.1.65.32.83.5.19.2.27.5.27.8 0 .35-.17.73-.46.92zm52.15 21.93h3.1v-15.17h-3.1v15.18zm-18.66-11.16c-.68 0-1.36.14-1.91.43-.55.3-1.03.71-1.4 1.21l-.11.17v-1.56h-2.81v10.91h3v-5.83c0-.97.2-1.74.6-2.25.4-.52.96-.77 1.63-.77.62 0 1.13.21 1.48.62.35.4.5 1.03.5 1.84v6.4h3.01v-6.6c0-1.45-.27-2.66-1-3.42-.75-.8-1.7-1.14-2.99-1.14zm-3.87-17.05c.38 0 .83.03 1.2.1v-2.6c-.31-.07-.65-.1-1.02-.1a3.2 3.2 0 0 0 -1.84.5 4.46 4.46 0 0 0 -1.62 1.8v-2.11h-3.08v10.97h3.11v-5.02c0-1.22.09-1.92.69-2.6.54-.64 1.49-.94 2.55-.94zm-7.9 25.52c-.48.62-1.21.9-2.02.9-.8 0-1.53-.28-2-.9a4.6 4.6 0 0 1 -.66-2.67c0-1.04.18-2.05.65-2.67.48-.62 1.2-.9 2.01-.9.8 0 1.54.28 2.01.9s.66 1.64.66 2.67a4.6 4.6 0 0 1 -.66 2.67zm1.01-7.78a6.21 6.21 0 0 0 -3.03-.7c-1.14 0-2.18.23-3.03.7a5.1 5.1 0 0 0 -2.03 2.03 6.5 6.5 0 0 0 -.71 3.08c0 1.17.25 2.2.7 3.08a5.1 5.1 0 0 0 2.04 2.03c.85.48 1.89.7 3.03.7 1.15 0 2.19-.22 3.03-.7a5.1 5.1 0 0 0 2.04-2.03c.46-.87.71-1.9.71-3.08a6.5 6.5 0 0 0 -.71-3.08 5.1 5.1 0 0 0 -2.04-2.03zm-9.24-15.92c.05-.82.32-1.6.77-2.01a2.45 2.45 0 0 1 1.7-.63c.67 0 1.24.22 1.7.64.47.42.65 1.2.7 2l.01.04h-4.89v-.04zm5.18 6.27a4.63 4.63 0 0 0 1.84-1.32 3.9 3.9 0 0 0 .84-1.81h-3.18c-.06.43-.25.8-.64 1.12-.38.3-.88.44-1.49.44-.73 0-1.35-.22-1.79-.71-.45-.51-.66-1.29-.7-2.36v-.04h7.93c0-1.06-.12-2.08-.32-2.81a5.02 5.02 0 0 0 -1.9-2.74 5.5 5.5 0 0 0 -3.23-.91 5.8 5.8 0 0 0 -3 .7 5.21 5.21 0 0 0 -1.97 2.08c-.43.85-.69 1.85-.69 2.94 0 1.16.22 2.2.66 3.1a4.96 4.96 0 0 0 2.01 2.11c.84.5 1.87.68 3.03.68.95 0 1.85-.15 2.6-.47zm-92.63-15.15-10.77 17.64 10.78 17.64h21.22l-10.8-17.64 10.79-17.64zm163 24.12c-.67 0-1.36.14-1.9.43-.55.3-1.03.71-1.41 1.21l-.1.17v-1.56h-2.82v10.91h3v-5.84c0-.97.2-1.74.6-2.25.41-.52.97-.77 1.64-.77.62 0 1.13.21 1.48.62.34.4.5 1.03.5 1.84v6.4h3v-6.6c0-1.45-.26-2.66-.99-3.42-.76-.8-1.7-1.14-3-1.14zm-42.67 6.4c0 .56-.04 1.04-.13 1.37-.08.33-.22.64-.47.9-.2.22-.51.42-.82.53-.3.12-.63.17-.96.17-.51 0-.9-.14-1.18-.41a1.56 1.56 0 0 1 -.44-1.13c0-.47.15-.92.43-1.17.33-.3.64-.46 1.34-.6.6-.13 1.39-.21 2.23-.26zm3.25-2.22c0-1.44-.31-2.48-1.2-3.26-.8-.72-2.04-.92-3.65-.92-1.54 0-2.89.32-3.7 1.06a3.7 3.7 0 0 0 -1.25 2.56h2.93c.04-.51.17-.92.5-1.21.32-.3.9-.49 1.5-.49.58 0 1.03.13 1.36.46.34.32.48.92.48 1.6v.56c-1.02.03-2.04.1-2.92.24-1.57.24-2.71.66-3.38 1.23a2.89 2.89 0 0 0 -1.03 2.24c0 .96.35 1.81 1.04 2.43.7.63 1.66.93 2.83.93 1.54 0 2.79-.63 3.58-1.73l.14-.22v.24c0 .55.07 1.04.17 1.45h2.9c-.2-.77-.3-1.78-.3-3zm52.29 1.12.01-.02 4.08-4.97h-3.47l-3.43 4.4-.37.46v-9.2h-3.03v15.2h3.03v-5.62l.38.5 3.67 5.11h3.59zm-113.32-18.55c0 .56-.04 1.04-.13 1.37-.08.33-.22.64-.47.9-.2.22-.51.42-.82.53-.3.12-.63.17-.96.17-.51 0-.9-.14-1.18-.41a1.56 1.56 0 0 1 -.44-1.13c0-.47.15-.93.43-1.17.34-.3.64-.46 1.34-.6.6-.13 1.4-.21 2.23-.26zm3.25-2.67c0-1.43-.3-2.47-1.19-3.25-.81-.73-2.05-.93-3.65-.93-1.55 0-2.9.32-3.7 1.06a3.7 3.7 0 0 0 -1.27 2.56h2.94c.03-.52.16-.92.49-1.22.32-.3.9-.48 1.5-.48.58 0 1.03.12 1.37.45.33.32.47.92.47 1.6v.56c-1.02.04-2.03.1-2.91.24-1.58.24-2.72.66-3.4 1.23a2.89 2.89 0 0 0 -1.02 2.25c0 .95.35 1.8 1.05 2.43.7.62 1.65.92 2.82.92 1.54 0 2.79-.63 3.59-1.73l.13-.21v.23c0 .55.07 1.04.17 1.45h2.9c-.2-.77-.3-1.77-.3-3v-4.17zm-20.14 4.75v-4.01h2.44c1.02 0 1.77.19 2.22.5.45.32.68.82.68 1.52 0 .66-.23 1.19-.67 1.5-.44.3-1.16.5-2.14.5h-2.53zm-.43-10.27h2.63c.94 0 1.63.15 2.06.46s.64.82.64 1.49c0 .69-.23 1.24-.69 1.55-.46.32-1.18.52-2.17.52h-2.47zm7.4 11.41a3.62 3.62 0 0 0 1.49-3.04c0-.97-.25-1.76-.75-2.33s-1.3-.98-2.37-1.2h-.03v-.1l.02-.01a4.15 4.15 0 0 0 2.01-1.37c.45-.58.67-1.3.67-2.17 0-1.2-.48-2.16-1.43-2.86-.96-.7-2.41-1.01-4.31-1.01h-5.81v15.18h6.36c1.76 0 3.15-.34 4.14-1.09zm98.38 16.43c0 .56-.05 1.04-.13 1.37-.09.33-.23.64-.47.9-.2.22-.52.42-.82.53-.31.12-.63.17-.96.17-.52 0-.9-.14-1.19-.41a1.55 1.55 0 0 1 -.43-1.13c0-.47.15-.92.42-1.17.34-.3.65-.46 1.34-.6.6-.13 1.4-.21 2.24-.26zm3.25-2.22c0-1.44-.31-2.48-1.2-3.26-.81-.72-2.05-.92-3.65-.92-1.54 0-2.89.32-3.7 1.06a3.71 3.71 0 0 0 -1.26 2.56h2.94c.04-.51.17-.92.49-1.21.33-.3.9-.49 1.5-.49.59 0 1.03.13 1.37.46.34.32.48.92.48 1.6v.56c-1.02.03-2.04.1-2.92.24-1.57.24-2.71.66-3.39 1.23a2.9 2.9 0 0 0 -1.02 2.24c0 .96.35 1.81 1.04 2.43.7.63 1.66.93 2.83.93 1.54 0 2.78-.63 3.58-1.73l.14-.22v.24c0 .55.07 1.04.16 1.45h2.91c-.2-.77-.3-1.78-.3-3zm-91.7 2.22c0 .56-.04 1.04-.13 1.37-.08.33-.22.64-.47.9-.2.22-.51.42-.82.53-.3.12-.63.17-.96.17-.51 0-.9-.14-1.18-.41a1.56 1.56 0 0 1 -.44-1.13c0-.47.15-.92.43-1.17.34-.3.64-.46 1.34-.6.6-.13 1.4-.21 2.23-.26zm3.25-2.22c0-1.44-.31-2.48-1.19-3.26-.82-.72-2.05-.92-3.65-.92-1.55 0-2.9.32-3.71 1.06a3.7 3.7 0 0 0 -1.25 2.56h2.94c.03-.51.16-.92.49-1.21.32-.3.9-.49 1.5-.49.58 0 1.03.13 1.37.46.33.32.47.92.47 1.6v.56c-1.02.03-2.03.1-2.91.24-1.58.24-2.72.66-3.4 1.23a2.89 2.89 0 0 0 -1.02 2.24c0 .96.35 1.81 1.05 2.43.7.63 1.65.93 2.82.93 1.54 0 2.79-.63 3.59-1.73l.13-.22v.24c0 .55.07 1.04.17 1.45h2.9c-.2-.77-.3-1.78-.3-3zm-11.22-8.2h-3.83l-5.44 7.1v-7.1h-3.2v15.18h3.2v-7.66l5.73 7.66h3.96l-6.3-8.03zm-72.48 19.2h42.66v-42.87h-42.66zm-1.78 1.34h45.78v-46h-45.78z" fill-rule="evenodd"></path></svg>
