<?xml version="1.0" encoding="utf-8"?>
<!-- Generator: Adobe Illustrator 22.0.1, SVG Export Plug-In . SVG Version: 6.00 Build 0)  -->
<svg version="1.1" id="Ebene_1" xmlns="http://www.w3.org/2000/svg" x="0px" y="0px"
     viewBox="0 0 296.2 81.1" style="enable-background:new 0 0 296.2 81.1;" xml:space="preserve">
<style type="text/css">
	.st0{fill:#E6320F;}
</style>
    <g>
	<path d="M155.4,52.8c-2.7,0-3.7,2.3-3.7,2.3v-2h-1.1V64h1.2v-7.6c0,0,1-2.4,3.4-2.4c1.8,0,3.1,1,3.1,3.2V64h1.2v-7
		C159.5,54,157.4,52.8,155.4,52.8 M137.1,57.9c0-1.2,1.1-3.9,4.1-3.9c2.9,0,4,2.6,4,3.9H137.1z M141.2,52.8c-3.3,0-5.4,2.7-5.4,5.8
		c0,3.1,2.4,5.8,5.6,5.8c1.8,0,3.5-1,4.6-2.2l-0.8-0.9c-0.7,0.9-2.1,1.9-3.7,1.9c-2.9,0-4.3-2.4-4.4-4h9.4c0-0.3,0-0.3,0-0.5
		C146.5,55.2,144.1,52.8,141.2,52.8 M123.7,53v1.2h6.7l-7.2,9.8h9.2v-1.2h-7l7.2-9.8H123.7z M115,52.8c-2.7,0-3.7,2.3-3.7,2.3v-2
		h-1.1V64h1.2v-7.6c0,0,1-2.4,3.4-2.4c1.8,0,3.1,1,3.1,3.2V64h1.2v-7C119.1,54,117.1,52.8,115,52.8 M100.3,63.1c-1.4,0-3-0.7-3-2.5
		c0-1.7,1.8-2.5,3.2-2.5c2.2,0,3.5,0.9,3.5,0.9v1.8C104,60.8,102.7,63.1,100.3,63.1 M100.8,52.8c-2.3,0-4.1,1.2-4.1,1.2l0.6,1.1
		c0,0,1.6-1,3.6-1c1.2,0,3.2,0.5,3.2,3.1v0.8c0,0-1.4-1-3.6-1c-2.1,0-4.3,1.3-4.3,3.7c0,2.4,2.1,3.7,4,3.7c2.7,0,4.1-2.2,4.1-2.2V64
		h1.1v-7.2C105.3,54.6,103.8,52.8,100.8,52.8 M87.6,52.8c-2.7,0-3.7,2.3-3.7,2.3v-2h-1.1V64H84v-7.6c0,0,1-2.4,3.4-2.4
		c1.8,0,3.1,1,3.1,3.2V64h1.2v-7C91.7,54,89.6,52.8,87.6,52.8 M75.9,49.5c0,0.5,0.4,1,1,1s1-0.4,1-1s-0.4-1-1-1S75.9,49,75.9,49.5
		 M76.2,64h1.2V53h-1.2V64z M63.6,48.4h7.9v-1.2h-9.2V64h1.2v-8h7.5v-1.2h-7.5V48.4z"/>
        <path d="M273.9,22.6c-2.4,0-3.3,2.1-3.3,2.1s-0.7-2.1-3.5-2.1c-2.3,0-3.1,1.9-3.1,1.9v-1.6h-1.9V34h2v-7.7c0,0,0.7-1.8,2.4-1.8
		c1.4,0,2.4,0.9,2.4,2.7V34h2v-7.7c0,0,0.7-1.8,2.4-1.8c1.4,0,2.4,0.9,2.4,2.7V34h2v-7.1C277.7,24.1,276.2,22.6,273.9,22.6
		 M252.4,34.3c2.4,0,3.4-2,3.4-2V34h1.9V22.9h-2v7.7c0,0-0.9,1.8-2.8,1.8c-1.5,0-2.7-0.8-2.7-2.7v-6.8h-2V30
		C248.2,32.8,250.2,34.3,252.4,34.3 M241,19.4c0,0.7,0.6,1.4,1.4,1.4c0.7,0,1.4-0.6,1.4-1.4s-0.6-1.4-1.4-1.4
		C241.6,18,241,18.6,241,19.4 M241.3,34h2V22.9h-2V34z M236.3,22.6c-2.1,0-3.1,2-3.1,2v-1.7h-1.9V34h2v-7.6c0,0,0.8-1.9,2.5-1.9
		c0.8,0,1.3,0.2,1.3,0.2l0.7-1.8C237.9,22.9,237.2,22.6,236.3,22.6 M218.7,27.5c0.1-1.2,1.1-3,3.5-3c2.2,0,3.4,1.8,3.4,3H218.7z
		 M222.2,22.6c-3.3,0-5.5,2.6-5.5,5.8c0,3.3,2.4,5.8,5.8,5.8c2.9,0,4.6-2.2,4.6-2.2l-1.3-1.3c0,0-1.2,1.6-3.3,1.6
		c-2.1,0-3.7-1.6-3.8-3.2h9c0-0.3,0-0.4,0-0.6C227.6,24.9,225.3,22.6,222.2,22.6 M206,24.7h2.2v6.1c0,2.4,1.8,3.5,3.3,3.5
		c0.6,0,1.3-0.1,2.3-0.7l-0.7-1.7c0,0-0.6,0.5-1.3,0.5c-1.1,0-1.6-0.6-1.6-1.7v-6h3.5v-1.8h-3.5v-3.4h-2v3.4H206V24.7z M193.9,32
		c0,0,1.6,2.3,4.8,2.3c2.1,0,4.4-1.1,4.4-3.2c0-2.3-1.8-3-3.9-3.5c-1.8-0.4-2.7-0.8-2.7-1.7c0-0.7,0.7-1.4,2.1-1.4
		c1.7,0,2.8,1.2,2.8,1.2l1.3-1.4c0,0-1.5-1.7-4.1-1.7c-2.5,0-4.1,1.6-4.1,3.2c0,2.1,1.7,3,4.1,3.5c1.7,0.3,2.5,0.8,2.5,1.8
		c0,0.9-1.3,1.4-2.4,1.4c-2.2,0-3.4-1.8-3.4-1.8L193.9,32z M187.4,19.4c0,0.7,0.6,1.4,1.4,1.4s1.4-0.6,1.4-1.4s-0.6-1.4-1.4-1.4
		S187.4,18.6,187.4,19.4 M187.7,34h2V22.9h-2V34z M178.7,22.6c-2.4,0-3.4,1.8-3.4,1.8v-1.6h-1.9V34h2v-7.6c0,0,1-1.9,2.8-1.9
		c1.5,0,2.7,0.8,2.7,2.7V34h2v-7.1C182.9,24.1,180.9,22.6,178.7,22.6 M166.1,19.4c0,0.7,0.6,1.4,1.4,1.4c0.7,0,1.4-0.6,1.4-1.4
		s-0.6-1.4-1.4-1.4C166.8,18,166.1,18.6,166.1,19.4 M166.5,34h2V22.9h-2V34z M157.8,22.6c-2.4,0-3.3,2.1-3.3,2.1s-0.7-2.1-3.5-2.1
		c-2.3,0-3.1,1.9-3.1,1.9v-1.6h-1.9V34h2v-7.7c0,0,0.7-1.8,2.4-1.8c1.4,0,2.4,0.9,2.4,2.7V34h2v-7.7c0,0,0.7-1.8,2.4-1.8
		c1.4,0,2.4,0.9,2.4,2.7V34h2v-7.1C161.6,24.1,160.1,22.6,157.8,22.6 M133,32c0,0,1.6,2.3,4.8,2.3c2.1,0,4.4-1.1,4.4-3.2
		c0-2.3-1.8-3-3.9-3.5c-1.8-0.4-2.7-0.8-2.7-1.7c0-0.7,0.7-1.4,2.1-1.4c1.7,0,2.8,1.2,2.8,1.2l1.3-1.4c0,0-1.5-1.7-4.1-1.7
		c-2.5,0-4.1,1.6-4.1,3.2c0,2.1,1.7,3,4.1,3.5c1.7,0.3,2.5,0.8,2.5,1.8c0,0.9-1.3,1.4-2.4,1.4c-2.2,0-3.4-1.8-3.4-1.8L133,32z
		 M121.1,27.5c0.1-1.2,1.1-3,3.5-3c2.2,0,3.4,1.8,3.4,3H121.1z M124.6,22.6c-3.3,0-5.5,2.6-5.5,5.8c0,3.3,2.4,5.8,5.8,5.8
		c2.9,0,4.6-2.2,4.6-2.2l-1.3-1.3c0,0-1.2,1.6-3.3,1.6c-2.1,0-3.7-1.6-3.8-3.2h9c0-0.3,0-0.4,0-0.6C130,24.9,127.7,22.6,124.6,22.6
		 M112.8,30.5c0,0-1.1,1.9-3.3,1.9c-2.3,0-3.7-1.8-3.7-4c0-2.2,1.5-4,3.7-4s3.3,1.9,3.3,1.9V30.5z M109.3,22.6c-3,0-5.4,2.6-5.4,5.8
		s2.4,5.8,5.4,5.8c2.7,0,3.7-1.9,3.7-1.9V34h1.8V15.8h-2v8.4C112.8,24.3,111.7,22.6,109.3,22.6 M96,22.6c-2.4,0-3.4,1.8-3.4,1.8
		v-1.6h-1.9V34h2v-7.6c0,0,1-1.9,2.8-1.9c1.5,0,2.7,0.8,2.7,2.7V34h2v-7.1C100.1,24.1,98.2,22.6,96,22.6 M80.9,34.3
		c2.4,0,3.4-2,3.4-2V34h1.9V22.9h-2v7.7c0,0-0.9,1.8-2.8,1.8c-1.5,0-2.7-0.8-2.7-2.7v-6.8h-2V30C76.7,32.8,78.7,34.3,80.9,34.3
		 M64.2,24.4v-5.3H67c1.9,0,3,1,3,2.7s-1.2,2.7-3,2.7H64.2z M67.5,32.1h-3.2v-5.8h3.2c2.4,0,3.5,1.3,3.5,2.9S69.9,32.1,67.5,32.1
		 M62.2,34h5.3c3.3,0,5.5-1.9,5.5-4.8c0-3.3-2.6-4.1-2.8-4.1c0.2,0,1.9-1,1.9-3.3c0-2.8-1.9-4.6-5.4-4.6h-4.4V34z"/>
</g>
    <polygon class="st0" points="43.2,22.7 43.2,17 17,17 19.7,22.7 "/>
    <polygon class="st0" points="24.9,34 43.2,34 43.2,28.3 22.3,28.3 "/>
</svg>
