<svg width="17" height="20" viewBox="0 0 17 20" fill="none" xmlns="http://www.w3.org/2000/svg">
<g clip-path="url(#clip0_70_78)">
<path d="M16.0146 9.9993C16.0146 12.6079 16.0146 15.2161 16.0146 17.824C16.0146 18.5503 15.7793 19.1538 15.1891 19.6039C14.8152 19.8782 14.3594 20.0177 13.896 19.9998C9.96649 19.9998 6.03728 19.9998 2.10841 19.9998C1.06294 19.9998 0.353014 19.4546 0.0727214 18.4725C0.0218007 18.2662 -0.000612067 18.0538 0.00618864 17.8414C0.00618864 12.6171 0.0062306 7.39176 -0.00195312 2.16748C-0.00195312 1.03301 0.714091 0.255556 1.5253 0.0724449C1.7415 0.0266344 1.9621 0.0046799 2.18309 0.00697515C6.07036 0.00288328 9.95762 0.00288328 13.8449 0.00697515C14.9272 0.00697515 15.6647 0.536872 15.9409 1.52403C15.9963 1.75538 16.0201 1.99317 16.0116 2.2309C16.017 4.81832 16.018 7.40779 16.0146 9.9993ZM1.35243 9.9993C1.35243 12.616 1.35243 15.2325 1.35243 17.8485C1.35243 18.449 1.5693 18.6669 2.1708 18.6669C6.06489 18.6669 9.95968 18.6669 13.8551 18.6669C14.4495 18.6669 14.6868 18.4255 14.6878 17.8229V2.17157C14.6878 1.55779 14.4474 1.32455 13.8316 1.32455H2.19537C1.56114 1.32455 1.35243 1.53529 1.35243 2.16952C1.35175 4.78081 1.35175 7.39074 1.35243 9.9993Z" fill="white"/>
<path d="M8.00999 16.657H4.68945C4.41018 16.657 4.18922 16.5465 4.07567 16.2857C3.96212 16.0248 3.97337 15.7619 4.17796 15.5757C4.32503 15.439 4.51383 15.3558 4.71397 15.3394C6.91028 15.323 9.1066 15.3261 11.3029 15.3312C11.7346 15.3312 12.0108 15.6156 12.0057 16.0115C12.0006 16.4074 11.7285 16.656 11.2804 16.657C10.191 16.6601 9.10149 16.657 8.00999 16.657Z" fill="white"/>
<path d="M7.32845 9.89725C7.32845 8.93566 7.32845 7.97475 7.32845 7.01453C7.32845 6.5409 7.58625 6.24321 7.98828 6.24219C8.3903 6.24117 8.65525 6.53783 8.65525 7.00635C8.65525 8.93702 8.65525 10.8677 8.65525 12.7984C8.65525 13.27 8.39442 13.5595 7.98318 13.5554C7.57195 13.5513 7.33052 13.2628 7.32949 12.8055C7.32745 11.8358 7.32708 10.8663 7.32845 9.89725Z" fill="white"/>
<path d="M7.32961 4.23401C7.33634 4.06285 7.40908 3.90093 7.53256 3.78221C7.65604 3.66348 7.82069 3.59717 7.99199 3.59717C8.16329 3.59717 8.32795 3.66348 8.45143 3.78221C8.57491 3.90093 8.6476 4.06285 8.65432 4.23401C8.65783 4.32319 8.64333 4.41215 8.61162 4.49557C8.57991 4.57899 8.53166 4.65515 8.46981 4.71948C8.40796 4.78381 8.33374 4.83499 8.25163 4.86995C8.16952 4.90491 8.08124 4.92293 7.99199 4.92293C7.90275 4.92293 7.81442 4.90491 7.73231 4.86995C7.6502 4.83499 7.57598 4.78381 7.51413 4.71948C7.45227 4.65515 7.40403 4.57899 7.37232 4.49557C7.34061 4.41215 7.32611 4.32319 7.32961 4.23401V4.23401Z" fill="white"/>
</g>
<defs>
<clipPath id="clip0_70_78">
<rect width="16.0166" height="20" fill="white"/>
</clipPath>
</defs>
</svg>
