<svg width="163" height="163" viewBox="0 0 163 163" fill="none" xmlns="http://www.w3.org/2000/svg">
<path d="M131.188 41.75C131.188 44.3856 130.141 46.9132 128.277 48.7769C126.413 50.6405 123.886 51.6875 121.25 51.6875C118.614 51.6875 116.087 50.6405 114.223 48.7769C112.359 46.9132 111.312 44.3856 111.312 41.75C111.312 39.1144 112.359 36.5868 114.223 34.7231C116.087 32.8595 118.614 31.8125 121.25 31.8125C123.886 31.8125 126.413 32.8595 128.277 34.7231C130.141 36.5868 131.188 39.1144 131.188 41.75ZM106.344 2C75.776 2 51.6875 26.0885 51.6875 56.6562C51.6875 60.6014 52.085 64.5665 52.8999 68.3328C53.4763 71.0159 52.8204 73.3413 51.4888 74.6729L6.3725 119.789C4.98556 121.174 3.88545 122.82 3.13515 124.631C2.38486 126.441 1.99911 128.383 2 130.343V146.094C2 150.047 3.57048 153.839 6.36594 156.634C9.16141 159.43 12.9529 161 16.9063 161H36.7813C40.7346 161 44.5261 159.43 47.3216 156.634C50.117 153.839 51.6875 150.047 51.6875 146.094V141.125H61.625C64.2606 141.125 66.7882 140.078 68.6519 138.214C70.5155 136.351 71.5625 133.823 71.5625 131.188V121.25H81.5C84.1356 121.25 86.6632 120.203 88.5269 118.339C90.3905 116.476 91.4375 113.948 91.4375 111.312V109.524C96.3367 110.855 101.445 111.312 106.344 111.312C136.911 111.312 161 87.224 161 56.6562C161 26.0885 136.911 2 106.344 2ZM61.625 56.6562C61.625 31.574 81.2615 11.9375 106.344 11.9375C131.426 11.9375 151.062 31.574 151.062 56.6562C151.062 81.7385 131.426 101.375 106.344 101.375C99.785 101.375 93.6933 100.431 88.6947 97.9267C87.9372 97.5471 87.0952 97.3675 86.2487 97.405C85.4022 97.4426 84.5794 97.6959 83.8585 98.141C83.1375 98.5862 82.5423 99.2083 82.1295 99.9482C81.7167 100.688 81.5 101.521 81.5 102.369V111.312H71.5625C68.9269 111.312 66.3993 112.359 64.5356 114.223C62.672 116.087 61.625 118.614 61.625 121.25V131.188H51.6875C49.0519 131.188 46.5243 132.234 44.6606 134.098C42.797 135.962 41.75 138.489 41.75 141.125V146.094C41.75 147.412 41.2265 148.675 40.2947 149.607C39.3629 150.539 38.099 151.062 36.7813 151.062H16.9063C15.5885 151.062 14.3246 150.539 13.3928 149.607C12.461 148.675 11.9375 147.412 11.9375 146.094V130.333C11.9378 129.018 12.4595 127.756 13.3884 126.825L58.5146 81.6988C62.8076 77.4058 63.7019 71.324 62.6088 66.236C61.9459 63.0861 61.6161 59.8752 61.625 56.6562V56.6562Z" fill="#555555" stroke="white" stroke-width="3"/>
</svg>
