<svg width="17" height="20" viewBox="0 0 17 20" fill="none" xmlns="http://www.w3.org/2000/svg">
<g clip-path="url(#clip0_70_94)">
<path d="M16.0146 9.9993C16.0146 12.6079 16.0146 15.2161 16.0146 17.824C16.0146 18.5503 15.7793 19.1538 15.1891 19.6039C14.8152 19.8782 14.3594 20.0177 13.896 19.9998C9.96649 19.9998 6.03728 19.9998 2.10841 19.9998C1.06294 19.9998 0.353014 19.4546 0.0727214 18.4725C0.0218007 18.2662 -0.000612067 18.0538 0.00618864 17.8414C0.00618864 12.6171 0.0062306 7.39176 -0.00195312 2.16748C-0.00195312 1.03301 0.714091 0.255556 1.5253 0.0724449C1.7415 0.0266344 1.9621 0.0046799 2.18309 0.00697515C6.07036 0.00288328 9.95763 0.00288328 13.8449 0.00697515C14.9272 0.00697515 15.6647 0.536872 15.9409 1.52403C15.9963 1.75538 16.0201 1.99317 16.0116 2.2309C16.017 4.81832 16.018 7.40779 16.0146 9.9993ZM1.35243 9.9993C1.35243 12.616 1.35243 15.2325 1.35243 17.8485C1.35243 18.449 1.5693 18.6669 2.1708 18.6669C6.06489 18.6669 9.95968 18.6669 13.8551 18.6669C14.4495 18.6669 14.6868 18.4255 14.6878 17.8229V2.17157C14.6878 1.55779 14.4474 1.32455 13.8316 1.32455H2.19537C1.56114 1.32455 1.35243 1.53529 1.35243 2.16952C1.35175 4.78081 1.35175 7.39074 1.35243 9.9993Z" fill="white"/>
<path d="M8.00071 2.66468C10.9111 2.64422 13.3088 5.02773 13.3365 7.9708C13.3405 9.02477 13.0318 10.0562 12.4494 10.9347C11.8669 11.8131 11.037 12.499 10.0646 12.9056C9.09222 13.3122 8.02108 13.4211 6.98674 13.2186C5.95239 13.0162 5.00135 12.5114 4.254 11.7682C3.50665 11.025 2.99656 10.0768 2.78833 9.04361C2.5801 8.01041 2.6831 6.93865 3.08423 5.964C3.48537 4.98934 4.16663 4.1556 5.04181 3.56829C5.91698 2.98098 6.94674 2.66651 8.00071 2.66468V2.66468ZM9.31723 7.31611C9.27018 6.96216 9.2395 6.6256 9.17812 6.29314C9.04616 5.57706 8.86305 4.88145 8.4109 4.29017C8.11219 3.8994 7.89943 3.89429 7.61096 4.29017C6.95728 5.18629 6.81608 6.23381 6.71072 7.31508L9.31723 7.31611ZM6.69643 8.68074C6.74758 9.04901 6.78233 9.38761 6.84268 9.7211C6.97158 10.4188 7.16085 11.098 7.58743 11.6831C7.89432 12.1026 8.13063 12.1005 8.43957 11.6739C8.81602 11.1543 9.01141 10.5569 9.13212 9.9349C9.21089 9.52571 9.261 9.10732 9.32647 8.68074H6.69643ZM5.29905 7.32327C5.47704 6.41487 5.64991 5.53308 5.82381 4.64821C4.89701 5.30496 4.27506 6.16425 4.07763 7.32327H5.29905ZM11.9483 7.32327C11.7355 6.15402 11.1207 5.29166 10.1479 4.6165C10.2696 5.09525 10.3996 5.52592 10.4855 5.96477C10.5714 6.40362 10.6175 6.866 10.6819 7.32327H11.9483ZM4.08682 8.68074C4.21878 9.89296 5.33176 11.1573 5.81562 11.2944C5.6499 10.4426 5.47941 9.5714 5.30414 8.68074H4.08682ZM10.7218 8.68074C10.5458 9.57891 10.374 10.4515 10.199 11.3405C11.1371 10.6837 11.7335 9.81828 11.9514 8.68074H10.7218Z" fill="white"/>
<path d="M8.00999 16.657H4.68945C4.41018 16.657 4.18922 16.5465 4.07567 16.2857C3.96212 16.0248 3.97337 15.7619 4.17796 15.5757C4.32503 15.439 4.51383 15.3558 4.71397 15.3394C6.91028 15.323 9.1066 15.3261 11.3029 15.3312C11.7346 15.3312 12.0108 15.6156 12.0057 16.0115C12.0006 16.4074 11.7285 16.656 11.2804 16.657C10.191 16.6601 9.10149 16.657 8.00999 16.657Z" fill="white"/>
</g>
<defs>
<clipPath id="clip0_70_94">
<rect width="16.0166" height="20" fill="white"/>
</clipPath>
</defs>
</svg>
