<svg width="16" height="20" viewBox="0 0 16 20" fill="none" xmlns="http://www.w3.org/2000/svg">
<path fill-rule="evenodd" clip-rule="evenodd" d="M0 8.99733V3.59358L8 0L16 3.59358V8.99733C16 14.0451 12.5678 18.7425 8 19.936C3.4322 18.7425 0 14.0451 0 8.99733ZM15.1111 4.18781L8 0.984389L0.888889 4.18781V9.20733C0.888889 11.3886 1.69832 13.5833 2.95905 15.3535C4.21777 17.1209 5.95965 18.5107 7.86988 19.0256L8 19.0606L8.13012 19.0256C10.0404 18.5107 11.7822 17.1209 13.041 15.3535C14.3017 13.5833 15.1111 11.3886 15.1111 9.20733V4.18781Z" fill="white"/>
<path d="M10.1445 9.49731H10.6445C10.7612 9.49731 10.9195 9.56052 11.0588 9.70914C11.195 9.85439 11.2778 10.0457 11.2778 10.2382V13.5791C11.2778 13.7028 11.2126 13.8651 11.066 14.0055C10.9224 14.143 10.7355 14.2246 10.55 14.2246H5.35556C5.23882 14.2246 5.0805 14.1614 4.94119 14.0128C4.80505 13.8675 4.72223 13.6762 4.72223 13.4837V10.1428C4.72223 10.0171 4.78928 9.85101 4.93182 9.70694C5.0747 9.56253 5.23673 9.49731 5.35556 9.49731H5.85556H6.08334H9.91667H10.1445Z" fill="white"/>
<rect x="6.45" y="6.45" width="3.1" height="6.1" rx="1.55" stroke="white" stroke-width="0.9"/>
</svg>
