<svg width="21" height="20" viewBox="0 0 21 20" fill="none" xmlns="http://www.w3.org/2000/svg">
<g clip-path="url(#clip0_70_68)">
<path d="M0.00167799 14.1772C0.00167799 12.5999 -0.00384273 11.0225 0.00167799 9.44515C0.00877606 8.0145 0.863708 6.95531 2.19893 6.7053C2.33293 6.6809 2.4689 6.66902 2.60509 6.66981C5.30709 6.66981 8.00831 6.65798 10.7103 6.66981C12.0203 6.67691 13.089 7.62095 13.3035 8.91517C13.3277 9.09232 13.3377 9.27113 13.3334 9.44989C13.3334 11.1461 13.3334 12.842 13.3334 14.5376C13.3334 16.1938 12.1977 17.3319 10.5368 17.3366C8.32062 17.3419 6.10471 17.3419 3.88906 17.3366C3.79724 17.3326 3.70567 17.3489 3.62088 17.3844C3.53608 17.4198 3.46015 17.4735 3.3985 17.5417C2.68239 18.2712 1.95129 18.9873 1.23518 19.7169C1.00331 19.9535 0.743837 20.0702 0.43231 19.9535C0.105011 19.8288 -0.00224921 19.5528 -0.00146053 19.2145C0.00406019 17.5346 0.00167799 15.8563 0.00167799 14.1772ZM1.34242 17.6411L1.42129 17.6884C1.86453 17.231 2.31329 16.779 2.74864 16.3153C2.84918 16.2062 2.97255 16.1205 3.10995 16.0645C3.24736 16.0085 3.39544 15.9834 3.54363 15.9912C5.86943 15.9998 8.19681 15.9967 10.5218 15.9951C11.4848 15.9951 11.9982 15.4754 11.999 14.5061C11.999 12.8278 11.999 11.1495 11.999 9.47118C11.999 8.54055 11.469 8.00819 10.5431 8.0074C7.95311 8.0074 5.3631 8.0074 2.77309 8.0074C2.63689 8.00465 2.50082 8.01788 2.3677 8.04684C1.69417 8.2093 1.33534 8.70932 1.33455 9.4909C1.33455 12.1324 1.33455 14.7737 1.33455 17.4147C1.33218 17.4952 1.33848 17.5661 1.34242 17.6411Z" fill="white"/>
<path d="M18.6727 11.0437V10.7204C18.6727 8.09488 18.668 5.46859 18.6766 2.8431C18.6766 2.24607 18.4826 1.76498 17.9392 1.4921C17.7172 1.38776 17.4748 1.3339 17.2294 1.33436C14.6379 1.32437 12.0463 1.32306 9.45468 1.33042C8.53903 1.33042 8.0114 1.87303 8.00903 2.78316C8.00903 3.38807 8.01613 3.99377 8.00903 4.59711C8.00036 5.1129 7.59814 5.43153 7.14781 5.29666C7.01342 5.26295 6.89403 5.18556 6.80838 5.07664C6.72274 4.96773 6.67568 4.83346 6.6746 4.69491C6.66829 3.91964 6.64226 3.14201 6.68721 2.36832C6.75741 1.17584 7.85052 0.111916 9.04378 0.0172755C9.17944 0.00623401 9.31587 -0.00244141 9.45231 -0.00244141C12.0439 -0.00244141 14.6355 -0.00244141 17.2271 -0.00244141C18.6183 -0.00244141 19.6862 0.838287 19.9464 2.12698C19.9873 2.36129 20.0055 2.59899 20.0008 2.83679C20.004 6.04407 20.004 9.2495 20.0008 12.4531C20.0008 12.532 20.0008 12.6069 19.9961 12.6834C19.9957 12.8169 19.9536 12.947 19.8757 13.0554C19.7978 13.1639 19.6879 13.2453 19.5615 13.2883C19.4418 13.337 19.31 13.3474 19.1841 13.318C19.0582 13.2886 18.9446 13.2209 18.8588 13.1243C18.1175 12.3829 17.369 11.6479 16.6364 10.8978C16.4684 10.7251 16.3027 10.6368 16.059 10.6612C15.8208 10.6754 15.5819 10.6754 15.3437 10.6612C14.9494 10.6486 14.6702 10.3678 14.6678 10.0011C14.6673 9.91332 14.6843 9.8263 14.7177 9.74514C14.7512 9.66398 14.8005 9.5903 14.8628 9.5284C14.925 9.46651 14.999 9.41764 15.0804 9.38465C15.1617 9.35166 15.2488 9.3352 15.3366 9.33625C15.7794 9.31481 16.2231 9.31823 16.6655 9.34651C16.8727 9.37816 17.0653 9.47225 17.2176 9.61624C17.6388 10.0011 18.0315 10.4175 18.4353 10.8205C18.4953 10.8828 18.5576 10.9373 18.6727 11.0437Z" fill="white"/>
<path d="M3.98901 12.6687C3.61124 12.6687 3.34152 12.38 3.34625 11.9904C3.34559 11.903 3.36253 11.8163 3.39606 11.7356C3.4296 11.6548 3.47903 11.5817 3.54144 11.5204C3.60385 11.4592 3.67794 11.4111 3.75931 11.3792C3.84067 11.3472 3.92765 11.3319 4.01505 11.3342C4.19128 11.3406 4.35813 11.4152 4.4803 11.5424C4.60247 11.6696 4.67038 11.8393 4.66965 12.0156C4.66551 12.1923 4.59158 12.3602 4.46405 12.4826C4.33651 12.6049 4.16573 12.6718 3.98901 12.6687V12.6687Z" fill="white"/>
<path d="M6.67462 12.6676C6.58732 12.6697 6.50047 12.6543 6.41924 12.6222C6.33802 12.5901 6.26408 12.5421 6.20178 12.4809C6.13948 12.4197 6.0901 12.3466 6.05658 12.2659C6.02306 12.1853 6.00606 12.0988 6.00661 12.0114C6.00553 11.8806 6.04325 11.7524 6.11502 11.643C6.18678 11.5336 6.28937 11.4479 6.40981 11.3968C6.53025 11.3457 6.66315 11.3314 6.79169 11.3558C6.92023 11.3802 7.03864 11.4422 7.13198 11.5339C7.22532 11.6256 7.28938 11.7429 7.31607 11.8709C7.34276 11.999 7.33088 12.1322 7.28193 12.2535C7.23299 12.3748 7.14917 12.4789 7.04108 12.5526C6.93298 12.6263 6.80545 12.6664 6.67462 12.6676V12.6676Z" fill="white"/>
<path d="M9.33079 11.3341C9.46286 11.332 9.59258 11.3693 9.70348 11.441C9.81438 11.5128 9.90148 11.6159 9.95375 11.7372C10.006 11.8585 10.0211 11.9926 9.99712 12.1225C9.97311 12.2524 9.91109 12.3722 9.81891 12.4668C9.72673 12.5614 9.60854 12.6265 9.47932 12.6539C9.35009 12.6813 9.21566 12.6697 9.09303 12.6206C8.9704 12.5715 8.86508 12.4871 8.79046 12.3781C8.71583 12.2692 8.67525 12.1405 8.67383 12.0084C8.67317 11.8323 8.74162 11.663 8.86447 11.5369C8.98733 11.4108 9.15477 11.338 9.33079 11.3341V11.3341Z" fill="white"/>
</g>
<defs>
<clipPath id="clip0_70_68">
<rect width="20.0032" height="20" fill="white"/>
</clipPath>
</defs>
</svg>
