<svg width="29" height="29" viewBox="0 0 29 29" fill="none" xmlns="http://www.w3.org/2000/svg">
<path d="M14.5 7.50919C15.0151 7.50919 15.5091 7.30457 15.8733 6.94036C16.2375 6.57615 16.4421 6.08217 16.4421 5.56709C16.4421 5.05202 16.2375 4.55804 15.8733 4.19383C15.5091 3.82961 15.0151 3.625 14.5 3.625C13.9849 3.625 13.4909 3.82961 13.1267 4.19383C12.7625 4.55804 12.5579 5.05202 12.5579 5.56709C12.5579 6.08217 12.7625 6.57615 13.1267 6.94036C13.4909 7.30457 13.9849 7.50919 14.5 7.50919ZM6.03925 10.1736L11.9118 10.7463V15.2776L11.3263 23.5879C11.3164 23.7587 11.37 23.9271 11.4767 24.0609C11.5834 24.1946 11.7357 24.2842 11.9045 24.3126C12.0732 24.3409 12.2465 24.3059 12.391 24.2143C12.5355 24.1227 12.6411 23.9809 12.6875 23.8163L14.1846 16.5354C14.2662 16.2092 14.7302 16.2092 14.8117 16.5354L16.3125 23.8144C16.3573 23.9809 16.4623 24.1247 16.6073 24.2179C16.7522 24.3112 16.9267 24.3471 17.0967 24.3189C17.2667 24.2906 17.4201 24.2001 17.5271 24.065C17.6341 23.9299 17.687 23.7598 17.6755 23.5879L17.0919 15.2794V10.7481L22.9626 10.1754C23.1337 10.1506 23.2893 10.0623 23.3983 9.92811C23.5074 9.79391 23.562 9.6236 23.5512 9.451C23.5405 9.27841 23.4652 9.11617 23.3404 8.99651C23.2156 8.87685 23.0503 8.80853 22.8774 8.80512H6.12444C5.95154 8.80853 5.78626 8.87685 5.66141 8.99651C5.53657 9.11617 5.46131 9.27841 5.45058 9.451C5.43985 9.6236 5.49444 9.79391 5.6035 9.92811C5.71256 10.0623 5.86811 10.1488 6.03925 10.1736Z" fill="white"/>
<path d="M14.5 0C10.6544 0 6.96623 1.52767 4.24695 4.24695C1.52767 6.96623 0 10.6544 0 14.5C0 18.3456 1.52767 22.0338 4.24695 24.753C6.96623 27.4723 10.6544 29 14.5 29C18.3456 29 22.0338 27.4723 24.753 24.753C27.4723 22.0338 29 18.3456 29 14.5C29 10.6544 27.4723 6.96623 24.753 4.24695C22.0338 1.52767 18.3456 0 14.5 0ZM1.8125 14.5C1.8125 11.1351 3.14921 7.90795 5.52858 5.52858C7.90795 3.14921 11.1351 1.8125 14.5 1.8125C17.8649 1.8125 21.092 3.14921 23.4714 5.52858C25.8508 7.90795 27.1875 11.1351 27.1875 14.5C27.1875 17.8649 25.8508 21.092 23.4714 23.4714C21.092 25.8508 17.8649 27.1875 14.5 27.1875C11.1351 27.1875 7.90795 25.8508 5.52858 23.4714C3.14921 21.092 1.8125 17.8649 1.8125 14.5Z" fill="white"/>
</svg>
