<svg width="16" height="20" viewBox="0 0 16 20" fill="none" xmlns="http://www.w3.org/2000/svg">
<g clip-path="url(#clip0_70_74)">
<path d="M0.00170898 7.60441C0.00170898 6.05141 0.00170898 4.49951 0.00170898 2.94869C0.00170898 2.30914 0.175683 2.09432 0.672293 2.07799C2.44147 2.01999 4.20003 1.8452 5.9104 1.21137C6.49686 0.994102 7.06044 0.708222 7.52111 0.162604C7.55972 0.113626 7.60862 0.0737331 7.66435 0.0457462C7.72008 0.0177594 7.78128 0.00236348 7.84362 0.000649111C7.90596 -0.00106525 7.96792 0.0109438 8.02511 0.0358255C8.08229 0.0607071 8.13331 0.0978524 8.17455 0.144635C8.89333 0.965512 9.7877 1.26773 10.6927 1.50705C12.1499 1.89339 13.6332 2.05348 15.1181 2.0788C15.4955 2.08615 15.7078 2.32384 15.7078 2.79023C15.7078 5.97137 15.7024 9.15332 15.6915 12.3361C15.6915 12.983 15.4824 13.5613 15.2153 14.1028C14.762 15.0193 14.1535 15.7446 13.4772 16.3858C11.833 17.9524 9.99599 19.0518 8.08142 19.9543C8.00762 19.9856 7.92811 20.0012 7.84795 20.0001C7.76779 19.9989 7.68875 19.9811 7.61585 19.9478C5.73723 19.0567 3.92722 17.9769 2.3067 16.4495C1.54136 15.7299 0.856068 14.9106 0.382327 13.8414C0.12049 13.23 -0.00787006 12.5698 0.00579694 11.9048C0.00498015 10.4714 0.00170898 9.03788 0.00170898 7.60441ZM1.05455 3.43223C1.05455 3.51391 1.04639 3.5915 1.04639 3.66665C1.04639 6.44048 1.04639 9.21376 1.04639 11.9865C1.04238 12.4075 1.12582 12.8247 1.29143 13.2117C1.64347 14.0285 2.17439 14.6427 2.74532 15.199C4.26456 16.6782 5.9741 17.7049 7.74083 18.5935C7.78323 18.6102 7.82886 18.617 7.87427 18.6134C7.91968 18.6099 7.96369 18.5961 8.00301 18.5731C8.9652 18.0185 9.93881 17.4917 10.8798 16.8824C11.9685 16.1767 12.9904 15.3305 13.8431 14.1927C14.3332 13.5392 14.6729 12.8156 14.668 11.8591C14.6525 9.15387 14.6623 6.44865 14.6623 3.74343V3.46653C13.5817 3.32441 12.5346 3.21415 11.4948 3.04099C10.3905 2.85721 9.29682 2.56725 8.31503 1.8648C7.97035 1.61977 7.73674 1.62548 7.39124 1.8648C6.12684 2.74204 4.72033 2.98708 3.31708 3.20026C2.57543 3.31543 1.82642 3.35627 1.05455 3.43223V3.43223Z" fill="white"/>
<path d="M8.41289 8.37304C8.41289 9.13973 8.41289 9.90697 8.41289 10.6748C8.41289 11.0529 8.20788 11.2906 7.88607 11.2914C7.56425 11.2923 7.35352 11.0554 7.35352 10.6813C7.35352 9.13973 7.35352 7.59817 7.35352 6.05661C7.35352 5.68007 7.5618 5.44892 7.89015 5.45218C8.21851 5.45545 8.41208 5.68579 8.41208 6.05089C8.41371 6.82521 8.41398 7.59926 8.41289 8.37304Z" fill="white"/>
<path d="M8.41208 12.8948C8.4062 13.0314 8.34764 13.1605 8.24868 13.255C8.14971 13.3494 8.01803 13.4019 7.88124 13.4013C7.74445 13.4008 7.61317 13.3473 7.51494 13.2521C7.41671 13.1569 7.35915 13.0274 7.35433 12.8907C7.35182 12.8195 7.36371 12.7485 7.38929 12.682C7.41487 12.6155 7.45361 12.5549 7.50319 12.5037C7.55278 12.4525 7.6122 12.4119 7.67786 12.3843C7.74352 12.3566 7.81408 12.3425 7.88533 12.3428C7.95658 12.3431 8.02703 12.3577 8.09248 12.3859C8.15792 12.414 8.21702 12.4551 8.26621 12.5067C8.31539 12.5582 8.35367 12.6191 8.37873 12.6858C8.4038 12.7525 8.41514 12.8236 8.41208 12.8948V12.8948Z" fill="white"/>
</g>
<defs>
<clipPath id="clip0_70_74">
<rect width="15.7053" height="20" fill="white"/>
</clipPath>
</defs>
</svg>
