<svg width="140" height="200" viewBox="0 0 140 200" fill="none" xmlns="http://www.w3.org/2000/svg">
<path d="M122.133 76.6667V77.8667H123.333H138.8V130C138.8 167.935 107.936 198.8 70 198.8C32.0644 198.8 1.2 167.935 1.2 130V77.8667H16.6667H17.8667V76.6667V53.3333C17.8667 39.5067 23.3593 26.2464 33.1362 16.4695C42.9131 6.6926 56.1734 1.2 70 1.2C83.8266 1.2 97.0869 6.6926 106.864 16.4695C116.641 26.2464 122.133 39.5067 122.133 53.3333V76.6667ZM110 77.8667H111.2V76.6667V53.3333C111.2 42.4064 106.859 31.927 99.1328 24.2005C91.4063 16.474 80.9269 12.1333 70 12.1333C59.0731 12.1333 48.5937 16.474 40.8672 24.2005C33.1407 31.927 28.8 42.4064 28.8 53.3333V76.6667V77.8667H30H110ZM13.3333 88.8H12.1333V90V130C12.1333 161.909 38.0914 187.867 70 187.867C101.909 187.867 127.867 161.909 127.867 130V90V88.8H126.667H13.3333Z" fill="#555555" stroke="white" stroke-width="2.4"/>
</svg>
