<svg width="42" height="42" viewBox="0 0 42 42" fill="none" xmlns="http://www.w3.org/2000/svg">
<path d="M21 0.984375C18.2344 0.984375 15.6562 1.54688 13.2188 2.57812C10.7812 3.60938 8.625 5.0625 6.84375 6.84375C5.01562 8.67188 3.60938 10.7812 2.57812 13.2188C1.5 15.6562 0.984375 18.2812 0.984375 21C0.984375 23.7656 1.5 26.3438 2.57812 28.7812C3.60938 31.2188 5.01562 33.375 6.84375 35.1562C8.625 36.9844 10.7812 38.3906 13.2188 39.4219C15.6562 40.5 18.2344 41.0156 21 41.0156C23.7188 41.0156 26.3438 40.5 28.7812 39.4219C31.2188 38.3906 33.3281 36.9844 35.1562 35.1562C36.9375 33.375 38.3906 31.2188 39.4219 28.7812C40.4531 26.3438 41.0156 23.7656 41.0156 21C41.0156 18.2812 40.4531 15.6562 39.4219 13.2188C38.3906 10.7812 36.9375 8.67188 35.1562 6.84375C33.3281 5.0625 31.2188 3.60938 28.7812 2.57812C26.3438 1.54688 23.7188 0.984375 21 0.984375ZM21 3C23.4844 3 25.8281 3.46875 27.9844 4.40625C30.1406 5.34375 32.0625 6.65625 33.7031 8.29688C35.3438 9.9375 36.6562 11.8594 37.5938 14.0156C38.5312 16.1719 39 18.5156 39 21C39 23.5312 38.5312 25.8281 37.5938 27.9844C36.6562 30.1875 35.3438 32.1094 33.7031 33.75C32.0625 35.3906 30.1406 36.6562 27.9844 37.5938C25.8281 38.5312 23.4844 39 21 39C18.4688 39 16.1719 38.5312 14.0156 37.5938C11.8125 36.6562 9.89062 35.3906 8.25 33.75C6.60938 32.1094 5.34375 30.1875 4.40625 27.9844C3.46875 25.8281 3 23.5312 3 21C3 18.5156 3.46875 16.1719 4.40625 14.0156C5.34375 11.8594 6.60938 9.9375 8.25 8.29688C9.89062 6.65625 11.8125 5.34375 14.0156 4.40625C16.1719 3.46875 18.4688 3 21 3ZM21.9844 15.9844H20.0156V30H22.0312L21.9844 15.9844ZM22.0312 12H20.0156V14.0156H22.0312V12Z" fill="#0184D4"/>
</svg>
