<svg width="299" height="52" viewBox="0 0 299 52" fill="none" xmlns="http://www.w3.org/2000/svg">
<path fill-rule="evenodd" clip-rule="evenodd" d="M0 40.6821H7.38763C12.5311 40.6821 21.6223 39.3811 21.6223 25.1994C21.6223 15.9323 16.4297 9.98978 6.87984 9.98978H0V40.6821ZM8.46875 17.6347C12.3182 17.6347 12.9898 22.2763 12.9898 25.6652C12.9898 28.5561 12.3182 33.278 8.46875 33.3101V17.6347Z" fill="white"/>
<path fill-rule="evenodd" clip-rule="evenodd" d="M30.6161 27.2873C30.6161 26.1791 31.0748 24.557 32.4344 24.557C33.794 24.557 34.3509 26.1631 34.3836 27.2873H30.6161ZM34.3836 33.3904C34.3144 33.8077 34.0975 34.1877 33.771 34.4637C33.4445 34.7398 33.0293 34.8943 32.5982 34.9002C30.9601 34.9002 30.698 32.8604 30.698 31.5916H42.5903C42.5903 28.2188 42.3282 25.0388 40.2151 22.2281C39.3624 21.0885 38.236 20.1727 36.9359 19.562C35.6358 18.9513 34.2022 18.6644 32.762 18.7269C26.0296 18.7269 22.4258 24.1876 22.4258 30.3389C22.4258 36.4902 25.702 41.1157 32.549 41.1157C34.8539 41.2408 37.1236 40.5184 38.914 39.0896C40.7044 37.6609 41.8868 35.6287 42.2299 33.3904H34.3836Z" fill="white"/>
<path fill-rule="evenodd" clip-rule="evenodd" d="M52.4178 19.1766H44.2275V40.6821H52.4178V30.3389C52.4178 28.1386 52.5489 26.6771 54.0559 26.6771C55.5629 26.6771 55.5465 27.978 55.5465 29.8089V40.6821H63.7368V26.5165C63.7368 22.6458 62.5738 18.743 57.8726 18.743C56.5801 18.8433 55.3502 19.3298 54.3484 20.1367C53.3467 20.9437 52.6215 22.0324 52.2704 23.2561H52.1885" fill="white"/>
<path d="M74.0731 19.1929H65.932V40.6823H74.0731V19.1929Z" fill="white"/>
<path fill-rule="evenodd" clip-rule="evenodd" d="M92.5162 40.6822V34.1615H89.1418C88.2409 34.1615 87.3727 34.1615 86.4554 34.1615L93.843 19.0964H76.152V25.5208H79.2643C80.3127 25.5208 81.3938 25.4405 82.4258 25.4083L75.0054 40.634" fill="white"/>
<path fill-rule="evenodd" clip-rule="evenodd" d="M95.6287 40.6819H106.997C114.565 40.6819 116.825 35.7031 116.825 31.9127C116.825 27.8172 114.63 25.2956 110.486 24.9584C111.292 24.9629 112.09 24.8035 112.83 24.4905C113.57 24.1774 114.235 23.7173 114.785 23.1393C115.334 22.5613 115.756 21.878 116.022 21.1323C116.289 20.3867 116.395 19.5949 116.334 18.8071C116.334 12.19 110.519 10.0699 105.539 10.0699H95.5796L95.6287 40.6819ZM104.048 34.1612V28.1384H104.704C106.653 28.1384 108.275 28.9896 108.275 31.0615C108.275 33.1333 106.636 34.0488 104.753 34.0488L104.048 34.1612ZM104.048 22.0192V16.6228H104.884C106.62 16.6228 107.898 17.3937 107.898 19.2246C107.898 21.0556 106.26 21.9068 104.54 21.9068L104.048 22.0192Z" fill="white"/>
<path fill-rule="evenodd" clip-rule="evenodd" d="M128.669 34.5309C127.882 34.5309 127.457 33.8724 127.26 33.0693C127.085 32.2672 127.003 31.4483 127.014 30.6281C126.992 29.5539 127.058 28.4798 127.211 27.4159C127.457 26.2274 127.915 25.2637 128.849 25.2637C129.783 25.2637 130.225 26.0668 130.487 27.0144C130.637 27.8734 130.692 28.7457 130.651 29.6162C130.673 30.5963 130.59 31.576 130.405 32.5393C130.209 33.5993 129.701 34.4987 128.669 34.4987V34.5309ZM138.792 19.1446H130.602L130.929 22.4531C130.541 21.372 129.83 20.4299 128.89 19.7486C127.95 19.0672 126.823 18.6778 125.655 18.6306C120.053 18.6306 118.775 25.3762 118.775 29.6162C118.775 33.8563 119.84 41.0195 125.491 41.0195C126.732 40.9618 127.928 40.543 128.926 39.8165C129.924 39.09 130.678 38.0886 131.093 36.94H131.175L130.798 40.4895H138.989L138.792 19.1446Z" fill="white"/>
<path fill-rule="evenodd" clip-rule="evenodd" d="M149.063 19.1766H140.873V40.6821H149.063V30.3389C149.063 28.1386 149.194 26.6771 150.701 26.6771C152.208 26.6771 152.192 27.978 152.192 29.8089V40.6821H160.382V26.5165C160.382 22.6458 159.219 18.743 154.534 18.743C153.263 18.8617 152.058 19.3571 151.081 20.1633C150.104 20.9694 149.4 22.0482 149.063 23.2561H148.965" fill="white"/>
<path fill-rule="evenodd" clip-rule="evenodd" d="M174.65 40.6823H183.987L178.041 29.0382L183.446 19.1929H174.65L170.817 28.8776H170.735V10.0543H162.594V40.6823H170.735V29.8894H170.817" fill="white"/>
<path d="M73.5815 10.038H66.3577V17.1208H73.5815V10.038Z" fill="white"/>
<path fill-rule="evenodd" clip-rule="evenodd" d="M214.699 40.5375L208.147 9.89337H197.827L190.243 40.5375H198.958L199.646 36.6026H205.33L205.952 40.5375H214.699ZM200.776 30.0979L201.939 22.983C202.267 21.0717 202.48 19.1284 202.725 17.2171H202.807C203.02 19.1284 203.184 21.0717 203.43 22.983L204.347 30.0979H200.776Z" fill="white"/>
<path fill-rule="evenodd" clip-rule="evenodd" d="M226.757 22.8224V29.2468H229.869C229.869 31.0456 229.214 33.6314 226.97 33.6314C223.693 33.6314 223.857 28.2831 223.693 26.0828C223.53 23.8824 223.349 16.7353 227.248 16.7353C228.739 16.7353 229.574 18.6466 229.656 19.9475L237.846 16.9763C237.076 14.7943 235.64 12.8977 233.732 11.5443C231.824 10.1909 229.537 9.44626 227.183 9.41159C218.026 9.41159 215.077 17.8275 215.077 25.4725C215.077 33.1174 218.059 41.1639 227.264 41.1639C237.093 41.1639 238.551 31.7844 238.551 24.2197V22.9188" fill="white"/>
<path d="M252.031 22.5334C252.55 19.7143 253.666 17.0333 255.307 14.6636L253.178 12.5757C252.5 11.9049 252.119 10.9986 252.119 10.0541C252.119 9.10958 252.5 8.2033 253.178 7.53254C253.854 6.87053 254.77 6.49866 255.725 6.49866C256.68 6.49866 257.597 6.87053 258.272 7.53254L260.369 9.6044C262.777 7.91851 265.534 6.77254 268.445 6.24768V3.51733C268.445 2.58448 268.823 1.68983 269.495 1.0302C270.168 0.370577 271.081 0 272.032 0C272.983 0 273.896 0.370577 274.569 1.0302C275.241 1.68983 275.619 2.58448 275.619 3.51733V6.26374C278.569 6.78375 281.366 7.93537 283.81 9.63651L285.71 7.75739C286.042 7.42572 286.438 7.16228 286.876 6.98246C287.313 6.80263 287.783 6.71001 288.257 6.71001C288.731 6.71001 289.201 6.80263 289.638 6.98246C290.075 7.16228 290.472 7.42572 290.804 7.75739C291.141 8.08713 291.409 8.47888 291.592 8.91019C291.774 9.34151 291.868 9.80392 291.868 10.2709C291.868 10.7379 291.774 11.2003 291.592 11.6316C291.409 12.063 291.141 12.4547 290.804 12.7844L288.871 14.6796C290.526 17.0421 291.644 19.7261 292.147 22.5494H294.375C294.87 22.5168 295.366 22.5841 295.833 22.7473C296.3 22.9104 296.728 23.166 297.091 23.498C297.453 23.8301 297.742 24.2316 297.939 24.6776C298.137 25.1236 298.238 25.6046 298.238 26.0909C298.238 26.5771 298.137 27.0581 297.939 27.5041C297.742 27.9501 297.453 28.3516 297.091 28.6837C296.728 29.0158 296.3 29.2713 295.833 29.4345C295.366 29.5976 294.87 29.665 294.375 29.6323H292.131C291.609 32.5189 290.452 35.2593 288.74 37.6627L290.378 39.2688C291.055 39.9368 291.435 40.8404 291.435 41.7823C291.435 42.7242 291.055 43.6278 290.378 44.2958C290.045 44.6256 289.648 44.8873 289.211 45.0659C288.774 45.2445 288.305 45.3364 287.831 45.3364C287.357 45.3364 286.888 45.2445 286.451 45.0659C286.014 44.8873 285.617 44.6256 285.284 44.2958L283.547 42.5773C281.163 44.2015 278.446 45.2975 275.587 45.7895V48.3914C275.587 49.3242 275.209 50.2188 274.536 50.8785C273.863 51.5381 272.951 51.9087 271.999 51.9087C271.048 51.9087 270.135 51.5381 269.463 50.8785C268.79 50.2188 268.412 49.3242 268.412 48.3914V45.7413C265.593 45.2291 262.919 44.1341 260.566 42.5291L258.616 44.5528C258.289 44.9136 257.89 45.2048 257.443 45.4084C256.997 45.6121 256.512 45.7238 256.02 45.7368C255.528 45.7497 255.038 45.6636 254.581 45.4837C254.124 45.3039 253.71 45.0341 253.363 44.691C253.016 44.3479 252.745 43.9389 252.566 43.4891C252.387 43.0393 252.304 42.5583 252.322 42.0757C252.34 41.5932 252.459 41.1194 252.671 40.6836C252.883 40.2478 253.184 39.8592 253.555 39.5418L255.537 37.5824C253.817 35.183 252.659 32.4409 252.146 29.552H248.952C248.457 29.5847 247.961 29.5173 247.493 29.3542C247.026 29.191 246.598 28.9354 246.236 28.6034C245.874 28.2713 245.585 27.8699 245.388 27.4238C245.19 26.9778 245.088 26.4968 245.088 26.0106C245.088 25.5243 245.19 25.0433 245.388 24.5973C245.585 24.1513 245.874 23.7498 246.236 23.4177C246.598 23.0857 247.026 22.8301 247.493 22.667C247.961 22.5038 248.457 22.4364 248.952 22.4691H251.949" fill="white"/>
<path fill-rule="evenodd" clip-rule="evenodd" d="M260.074 24.6694C260.325 22.5137 261.169 20.4653 262.515 18.7429L266.823 22.983C266.507 23.5132 266.275 24.0872 266.135 24.6854L260.074 24.6694ZM264.497 16.655C266.176 15.3696 268.17 14.5389 270.279 14.2459V20.2848C269.757 20.4311 269.26 20.653 268.805 20.9433L264.497 16.655ZM273.146 14.1335C275.507 14.3564 277.748 15.2619 279.583 16.7353L275.308 20.9593C274.658 20.5337 273.929 20.2389 273.162 20.092L273.146 14.1335ZM281.598 18.7911C282.906 20.5026 283.721 22.5273 283.957 24.6533H277.896C277.771 24.0908 277.561 23.5496 277.274 23.0472L281.598 18.7911ZM283.941 27.4961C283.658 29.6308 282.792 31.6508 281.434 33.3422L277.143 29.1022C277.463 28.6069 277.701 28.0647 277.847 27.4961H283.941ZM279.387 35.3498C277.594 36.7214 275.441 37.5678 273.179 37.7911V31.8807C273.85 31.7485 274.492 31.504 275.079 31.158L279.387 35.3498ZM270.279 37.775C268.245 37.4889 266.321 36.6922 264.693 35.4623L269.018 31.2222C269.418 31.4309 269.841 31.5927 270.279 31.704V37.775ZM262.63 33.4868C261.22 31.7684 260.324 29.7001 260.041 27.5122H266.135C266.293 28.1328 266.553 28.7241 266.905 29.2628L262.63 33.4868ZM253.669 28.0422H249.361C249.066 28.0945 248.763 28.0828 248.473 28.0077C248.184 27.9326 247.914 27.796 247.684 27.6075C247.454 27.4191 247.269 27.1835 247.142 26.9172C247.015 26.651 246.949 26.3606 246.949 26.0667C246.949 25.7727 247.015 25.4824 247.142 25.2161C247.269 24.9499 247.454 24.7142 247.684 24.5258C247.914 24.3374 248.184 24.2008 248.473 24.1257C248.763 24.0506 249.066 24.0388 249.361 24.0912H253.653C254.019 20.6682 255.365 17.4166 257.535 14.7116L254.619 11.8528C254.373 11.6865 254.166 11.4691 254.014 11.2159C253.863 10.9628 253.769 10.6801 253.741 10.3878C253.713 10.0954 253.75 9.80058 253.851 9.52401C253.951 9.24743 254.113 8.99586 254.323 8.78703C254.534 8.57821 254.789 8.41721 255.069 8.31539C255.35 8.21357 255.651 8.17341 255.949 8.19774C256.248 8.22207 256.537 8.3103 256.797 8.4562C257.057 8.6021 257.281 8.80212 257.453 9.04217L260.451 11.901C263.199 9.694 266.537 8.31101 270.066 7.91791V4.06331C270.013 3.77631 270.025 3.48134 270.101 3.19928C270.177 2.91722 270.315 2.65493 270.505 2.43098C270.696 2.20702 270.934 2.02686 271.204 1.90323C271.473 1.77959 271.767 1.71552 272.065 1.71552C272.362 1.71552 272.656 1.77959 272.926 1.90323C273.195 2.02686 273.434 2.20702 273.624 2.43098C273.815 2.65493 273.953 2.91722 274.029 3.19928C274.105 3.48134 274.116 3.77631 274.063 4.06331V7.90185C277.633 8.28211 281.014 9.6715 283.793 11.901L286.398 9.21884C286.583 8.99893 286.81 8.81722 287.067 8.68427C287.325 8.55132 287.606 8.46978 287.896 8.44438C288.185 8.41898 288.477 8.45022 288.754 8.5363C289.031 8.62238 289.288 8.76158 289.51 8.94581C289.883 9.3938 290.063 9.96707 290.011 10.5432C289.959 11.1194 289.679 11.6527 289.232 12.0295L286.512 14.7116C288.678 17.4117 290.018 20.6584 290.378 24.0751H293.933C294.228 24.0228 294.531 24.0345 294.821 24.1096C295.111 24.1847 295.38 24.3213 295.61 24.5097C295.84 24.6982 296.025 24.9338 296.152 25.2001C296.279 25.4663 296.345 25.7567 296.345 26.0506C296.345 26.3446 296.279 26.6349 296.152 26.9012C296.025 27.1674 295.84 27.4031 295.61 27.5915C295.38 27.7799 295.111 27.9165 294.821 27.9916C294.531 28.0667 294.228 28.0785 293.933 28.0261H290.362C289.985 31.4935 288.591 34.7793 286.349 37.4859L288.969 40.1039C289.42 40.4784 289.702 41.0106 289.757 41.5868C289.813 42.1631 289.636 42.7376 289.264 43.1875C288.812 43.5565 288.229 43.7348 287.643 43.6837C287.056 43.6325 286.515 43.356 286.136 42.9145L283.482 40.2805C280.754 42.4096 277.464 43.7352 273.998 44.103V47.9897C274.051 48.2767 274.039 48.5717 273.963 48.8538C273.887 49.1358 273.749 49.3981 273.559 49.6221C273.368 49.846 273.13 50.0262 272.86 50.1498C272.591 50.2734 272.297 50.3375 271.999 50.3375C271.702 50.3375 271.408 50.2734 271.138 50.1498C270.869 50.0262 270.63 49.846 270.44 49.6221C270.249 49.3981 270.111 49.1358 270.035 48.8538C269.959 48.5717 269.948 48.2767 270.001 47.9897V44.103C266.574 43.7261 263.326 42.4065 260.631 40.2966L257.765 43.1233C257.385 43.5635 256.845 43.8404 256.26 43.8944C255.675 43.9485 255.092 43.7754 254.636 43.4124C254.264 42.9598 254.086 42.3827 254.141 41.8038C254.196 41.2249 254.48 40.69 254.931 40.3127L257.765 37.5181C255.52 34.8051 254.121 31.515 253.735 28.0422" fill="#CE163A"/>
</svg>
