<svg width="18" height="17" viewBox="0 0 18 17" fill="none" xmlns="http://www.w3.org/2000/svg">
<g clip-path="url(#clip0_70_65)">
<path d="M1.80623 5.67274C2.44596 2.16176 5.42843 0.000628556 8.50831 1.37212e-07C11.5882 -0.000628282 14.57 2.15736 15.2091 5.67211C15.3128 5.67211 15.4209 5.67651 15.5284 5.67211C16.3114 5.63566 17.0184 6.26597 17.0102 7.1533C17.002 8.05759 17.0102 8.96189 17.0071 9.86618C17.0071 10.5574 16.6086 11.0922 15.9614 11.2801C15.8187 11.3115 15.6732 11.3277 15.5271 11.3285C15.4241 11.3354 15.3198 11.3285 15.2179 11.3285C15.1463 11.6088 15.0891 11.8796 15.0087 12.1423C14.4243 14.0427 13.2265 15.4283 11.4594 16.32C10.5343 16.7863 9.54018 16.9881 8.5058 16.9994C8.3625 16.9961 8.2258 16.9385 8.12333 16.8383C8.02086 16.738 7.96026 16.6026 7.9538 16.4595C7.94733 16.3163 7.99548 16.176 8.0885 16.0669C8.18153 15.9578 8.31247 15.8882 8.45489 15.872C8.77664 15.8399 9.10154 15.8318 9.42078 15.7834C10.4776 15.6255 11.4638 15.1574 12.2543 14.4386C13.2823 13.5436 13.9451 12.3017 14.1163 10.9496C14.1554 10.6544 14.1753 10.3569 14.176 10.0591C14.1829 9.02976 14.1792 7.99978 14.176 6.9698C14.1859 6.22093 14.0555 5.47683 13.7914 4.77599C13.4269 3.82431 12.8118 2.98896 12.0111 2.35846C11.1883 1.69415 10.191 1.2819 9.13925 1.17137C7.93331 1.04569 6.78707 1.26187 5.7263 1.86829C4.65068 2.47245 3.8023 3.41198 3.31066 4.54347C3.04861 5.13419 2.87076 5.75758 2.86196 6.40611C2.83934 7.83828 2.83934 9.27044 2.83431 10.7026C2.83431 10.8836 2.80917 11.0577 2.65898 11.167C2.55415 11.2487 2.42981 11.3015 2.29827 11.3203C2.01297 11.343 1.7239 11.3335 1.43671 11.3279C0.619763 11.3115 0.0202518 10.7271 0.00831179 9.9108C-0.00635133 8.96985 -0.00635133 8.0291 0.00831179 7.08857C0.0208802 6.27162 0.62165 5.69097 1.4386 5.67274C1.56051 5.67023 1.67991 5.67274 1.80623 5.67274ZM1.69688 10.1974V6.80201C1.61079 6.80201 1.53349 6.80201 1.45682 6.80201C1.25133 6.81018 1.14261 6.90884 1.14261 7.11245C1.13968 8.04167 1.13968 8.97089 1.14261 9.90012C1.14261 10.0886 1.25132 10.1867 1.43671 10.1974C1.52029 10.203 1.60262 10.1986 1.69688 10.1986V10.1974ZM15.316 10.1892C15.7948 10.2282 15.874 10.1571 15.874 9.70531C15.874 9.02662 15.874 8.34813 15.874 7.66986C15.874 7.48133 15.8784 7.29281 15.874 7.10428C15.8696 6.91575 15.7653 6.80892 15.5699 6.7995C15.4882 6.79573 15.4065 6.7995 15.3185 6.7995L15.316 10.1892Z" fill="white"/>
<path d="M13.0272 8.21851C13.0272 8.77215 13.0498 9.32767 13.0222 9.88005C12.9625 11.0935 12.4748 12.1179 11.5875 12.9499C10.8868 13.6214 9.98158 14.0393 9.01598 14.137C7.6963 14.2765 6.52429 13.9076 5.5207 13.0335C4.77913 12.3992 4.27285 11.5336 4.08352 10.5763C4.01815 10.254 3.98363 9.92616 3.98045 9.59727C3.97228 8.57294 3.96285 7.54799 3.99616 6.52492C4.02946 5.50186 4.42538 4.6095 5.08899 3.8334C5.6226 3.20997 6.31874 2.74682 7.09993 2.4955C7.85637 2.23666 8.66985 2.19315 9.44958 2.36981C10.9578 2.71293 12.0261 3.60717 12.6709 5.00918C12.9449 5.60555 13.0429 6.24653 13.0416 6.90197C13.0416 7.34187 13.0416 7.78176 13.0416 8.22165L13.0272 8.21851ZM11.896 8.22794C11.896 7.67933 11.9193 7.13009 11.891 6.58274C11.8407 5.59486 11.4002 4.78671 10.6429 4.16395C9.87188 3.52925 8.97575 3.30993 7.98725 3.44504C6.46019 3.65305 5.17318 5.03997 5.1248 6.57834C5.09337 7.58381 5.1028 8.59494 5.1072 9.60292C5.11097 10.5807 5.46414 11.4253 6.17551 12.0965C6.99246 12.8694 7.97092 13.1485 9.07693 12.9826C10.5977 12.7551 11.8376 11.3801 11.896 9.84046C11.9142 9.30505 11.8966 8.76398 11.8966 8.22794H11.896Z" fill="white"/>
</g>
<defs>
<clipPath id="clip0_70_65">
<rect width="17.0101" height="17" fill="white"/>
</clipPath>
</defs>
</svg>
