<?xml version="1.0" encoding="utf-8"?>
<!-- Generator: Adobe Illustrator 23.0.2, SVG Export Plug-In . SVG Version: 6.00 Build 0)  -->
<svg version="1.1" id="Ebene_1" xmlns="http://www.w3.org/2000/svg" x="0px" y="0px"
     viewBox="0 0 249.45 51.02" style="enable-background:new 0 0 249.45 51.02;" xml:space="preserve">
<style type="text/css">
	.st0{fill:#E6320F;}
</style>
    <g>
	<path d="M223.7,24.73h2.16v6.07c0,2.45,1.75,3.48,3.34,3.48c0.65,0,1.34-0.14,2.3-0.67l-0.75-1.66c0,0-0.65,0.46-1.27,0.46
		c-1.08,0-1.61-0.62-1.61-1.7v-5.98h3.46V22.9h-3.46v-3.38h-2.02v3.38h-2.16V24.73z M214.96,32.5c-1.25,0-2.54-0.58-2.54-2.02
		c0-1.15,1.08-2.02,2.81-2.02c1.8,0,2.9,0.79,2.9,0.79v1.56C218.13,30.82,216.93,32.5,214.96,32.5 M215.32,22.61
		c-2.42,0-4.15,1.13-4.15,1.13l0.84,1.68c0,0,1.63-0.94,3.31-0.94c0.89,0,2.81,0.31,2.81,2.62v0.6c0,0-1.3-0.91-3.34-0.91
		c-2.5,0-4.39,1.54-4.39,3.7c0,2.4,2.14,3.79,4.13,3.79c2.52,0,3.77-1.9,3.77-1.9v1.61h1.85v-7.3
		C220.15,24.63,218.59,22.61,215.32,22.61 M203.83,32.91c0,0.74,0.62,1.37,1.37,1.37c0.74,0,1.37-0.62,1.37-1.37
		c0-0.74-0.62-1.37-1.37-1.37C204.45,31.54,203.83,32.17,203.83,32.91 M191.3,27.49c0.14-1.15,1.13-3,3.53-3
		c2.23,0,3.36,1.75,3.43,3H191.3z M194.83,22.61c-3.34,0-5.54,2.59-5.54,5.83c0,3.29,2.42,5.83,5.78,5.83
		c2.93,0,4.61-2.18,4.61-2.18l-1.27-1.32c0,0-1.15,1.63-3.34,1.63c-2.09,0-3.7-1.56-3.82-3.24h8.95c0.02-0.26,0.02-0.43,0.02-0.65
		C200.23,24.94,197.92,22.61,194.83,22.61 M181.36,22.61c-2.4,0-3.41,1.85-3.41,1.85V22.9h-1.87v11.09h2.02v-7.63
		c0,0,0.96-1.87,2.76-1.87c1.49,0,2.66,0.82,2.66,2.71v6.79h2.02v-7.13C185.54,24.13,183.57,22.61,181.36,22.61 M168.83,19.35
		c0,0.74,0.62,1.37,1.37,1.37s1.37-0.62,1.37-1.37s-0.62-1.37-1.37-1.37S168.83,18.61,168.83,19.35 M169.19,33.99h2.02V22.9h-2.02
		V33.99z M161.87,33.99h2.02V15.85h-2.02V33.99z M152.75,22.61c-2.4,0-3.41,1.85-3.41,1.85V22.9h-1.87v11.09h2.02v-7.63
		c0,0,0.96-1.87,2.76-1.87c1.49,0,2.66,0.82,2.66,2.71v6.79h2.02v-7.13C156.93,24.13,154.96,22.61,152.75,22.61 M138.02,32.41
		c-2.23,0-3.7-1.78-3.7-3.96s1.46-3.96,3.7-3.96c2.23,0,3.7,1.78,3.7,3.96S140.25,32.41,138.02,32.41 M138.02,22.61
		c-3.26,0-5.71,2.57-5.71,5.83s2.45,5.83,5.71,5.83c3.26,0,5.71-2.57,5.71-5.83S141.28,22.61,138.02,22.61 M119.97,22.9v1.87H126
		l-6.36,9.22h9.65v-1.87h-6.1l6.36-9.22H119.97z M111.67,22.61c-2.4,0-3.41,1.85-3.41,1.85V22.9h-1.87v11.09h2.02v-7.63
		c0,0,0.96-1.87,2.76-1.87c1.49,0,2.66,0.82,2.66,2.71v6.79h2.02v-7.13C115.84,24.13,113.88,22.61,111.67,22.61 M96.69,32.5
		c-1.25,0-2.54-0.58-2.54-2.02c0-1.15,1.08-2.02,2.81-2.02c1.8,0,2.9,0.79,2.9,0.79v1.56C99.86,30.82,98.66,32.5,96.69,32.5
		 M97.05,22.61c-2.42,0-4.15,1.13-4.15,1.13l0.84,1.68c0,0,1.63-0.94,3.31-0.94c0.89,0,2.81,0.31,2.81,2.62v0.6
		c0,0-1.3-0.91-3.34-0.91c-2.5,0-4.39,1.54-4.39,3.7c0,2.4,2.14,3.79,4.13,3.79c2.52,0,3.77-1.9,3.77-1.9v1.61h1.85v-7.3
		C101.88,24.63,100.32,22.61,97.05,22.61 M83.97,22.61c-2.4,0-3.41,1.85-3.41,1.85V22.9h-1.87v11.09h2.02v-7.63
		c0,0,0.96-1.87,2.76-1.87c1.49,0,2.66,0.82,2.66,2.71v6.79h2.02v-7.13C88.15,24.13,86.18,22.61,83.97,22.61 M71.44,19.35
		c0,0.74,0.62,1.37,1.37,1.37s1.37-0.62,1.37-1.37s-0.62-1.37-1.37-1.37S71.44,18.61,71.44,19.35 M71.8,33.99h2.02V22.9H71.8V33.99z
		 M60.72,24.73h2.3v9.26h2.02v-9.26h2.88V22.9h-2.88v-3.7c0-1.08,0.6-1.78,1.68-1.78c0.62,0,1.3,0.43,1.3,0.43l0.74-1.66
		c-0.96-0.53-1.68-0.65-2.33-0.65c-1.58,0-3.41,1.18-3.41,3.53v3.82h-2.3V24.73z"/>
</g>
    <polygon class="st0" points="43.23,22.68 43.23,17.01 17.01,17.01 19.65,22.68 "/>
    <polygon class="st0" points="24.94,34.02 43.23,34.02 43.23,28.35 22.29,28.35 "/>
</svg>
