<?xml version="1.0" encoding="UTF-8" standalone="no"?>
<svg
   version="1.1"
   x="0px"
   y="0px"
   viewBox="0 0 135 40"
   xml:space="preserve"
   id="svg33"
   sodipodi:docname="google-play.svg"
   width="135"
   height="40"
   inkscape:version="1.3 (0e150ed6c4, 2023-07-21)"
   xmlns:inkscape="http://www.inkscape.org/namespaces/inkscape"
   xmlns:sodipodi="http://sodipodi.sourceforge.net/DTD/sodipodi-0.dtd"
   xmlns="http://www.w3.org/2000/svg"
   xmlns:svg="http://www.w3.org/2000/svg"><defs
   id="defs33" /><sodipodi:namedview
   id="namedview33"
   pagecolor="#ffffff"
   bordercolor="#000000"
   borderopacity="0.25"
   inkscape:showpageshadow="2"
   inkscape:pageopacity="0.0"
   inkscape:pagecheckerboard="0"
   inkscape:deskcolor="#d1d1d1"
   inkscape:zoom="10.309677"
   inkscape:cx="77.5"
   inkscape:cy="30.020338"
   inkscape:window-width="2560"
   inkscape:window-height="1387"
   inkscape:window-x="-8"
   inkscape:window-y="-8"
   inkscape:window-maximized="1"
   inkscape:current-layer="g33" />&#10;	<style
   type="text/css"
   id="style1">.st7,.st8,.st9{enable-background:new}.st0{fill:#fff;fill-opacity:0}.st1{fill:#A6A6A6}.st2{fill:#fff}.st3{fill:url(#SVGID_1_)}.st4{fill:url(#SVGID_2_)}.st5{fill:url(#SVGID_3_)}.st6{fill:url(#SVGID_4_)}.st7{opacity:.2}.st8{opacity:.12}.st9{opacity:.25;fill:#fff}.st10{fill:#fff;stroke:#fff;stroke-width:.2;stroke-miterlimit:10}</style>&#10;	&#10;	&#10;	&#10;	<g
   id="g4"
   transform="translate(-10,-10)"
   style="display:inline"
   inkscape:label="background">&#10;		<path
   d="M 140,50 H 15 c -2.8,0 -5,-2.3 -5,-5 V 15 c 0,-2.8 2.3,-5 5,-5 h 125 c 2.8,0 5,2.3 5,5 v 30 c 0,2.7 -2.2,5 -5,5 z"
   id="path4" />&#10;	</g>&#10;	<g
   id="g5"
   transform="translate(-10,-10)"
   style="display:inline"
   inkscape:label="border">&#10;		<path
   class="st1"
   d="m 140,10.8 c 2.3,0 4.2,1.9 4.2,4.2 v 30 c 0,2.3 -1.9,4.2 -4.2,4.2 H 15 c -2.3,0 -4.2,-1.9 -4.2,-4.2 V 15 c 0,-2.3 1.9,-4.2 4.2,-4.2 H 140 M 140,10 H 15 c -2.8,0 -5,2.3 -5,5 v 30 c 0,2.8 2.3,5 5,5 h 125 c 2.8,0 5,-2.3 5,-5 V 15 c 0,-2.7 -2.2,-5 -5,-5 z"
   id="path5" />&#10;	</g>&#10;	<g
   id="g21"
   transform="translate(-10,-10)"
   style="display:inline"
   inkscape:label="spotlight">&#10;		<linearGradient
   id="SVGID_1_"
   gradientUnits="userSpaceOnUse"
   x1="31.7997"
   y1="183.2903"
   x2="15.0173"
   y2="166.5079"
   gradientTransform="matrix(1,0,0,-1,0,202)">&#10;			<stop
   offset="0"
   style="stop-color:#00A0FF"
   id="stop5" />&#10;			<stop
   offset="6.574450e-003"
   style="stop-color:#00A1FF"
   id="stop6" />&#10;			<stop
   offset="0.2601"
   style="stop-color:#00BEFF"
   id="stop7" />&#10;			<stop
   offset="0.5122"
   style="stop-color:#00D2FF"
   id="stop8" />&#10;			<stop
   offset="0.7604"
   style="stop-color:#00DFFF"
   id="stop9" />&#10;			<stop
   offset="1"
   style="stop-color:#00E3FF"
   id="stop10" />&#10;		</linearGradient>&#10;		<path
   class="st3"
   d="m 20.4,17.5 c -0.3,0.3 -0.5,0.8 -0.5,1.4 V 41 c 0,0.6 0.2,1.1 0.5,1.4 l 0.1,0.1 12.4,-12.4 V 30 29.9 Z"
   id="path10"
   style="fill:url(#SVGID_1_)" />&#10;		<linearGradient
   id="SVGID_2_"
   gradientUnits="userSpaceOnUse"
   x1="43.8344"
   y1="171.9986"
   x2="19.637501"
   y2="171.9986"
   gradientTransform="matrix(1,0,0,-1,0,202)">&#10;			<stop
   offset="0"
   style="stop-color:#FFE000"
   id="stop11" />&#10;			<stop
   offset="0.4087"
   style="stop-color:#FFBD00"
   id="stop12" />&#10;			<stop
   offset="0.7754"
   style="stop-color:#FFA500"
   id="stop13" />&#10;			<stop
   offset="1"
   style="stop-color:#FF9C00"
   id="stop14" />&#10;		</linearGradient>&#10;		<path
   class="st4"
   d="M 37,34.3 32.9,30.2 V 30 29.9 l 4.1,-4.1 0.1,0.1 4.9,2.8 c 1.4,0.8 1.4,2.1 0,2.9 z"
   id="path14"
   style="fill:url(#SVGID_2_)" />&#10;		<linearGradient
   id="SVGID_3_"
   gradientUnits="userSpaceOnUse"
   x1="34.827"
   y1="169.7039"
   x2="12.0687"
   y2="146.9456"
   gradientTransform="matrix(1,0,0,-1,0,202)">&#10;			<stop
   offset="0"
   style="stop-color:#FF3A44"
   id="stop15" />&#10;			<stop
   offset="1"
   style="stop-color:#C31162"
   id="stop16" />&#10;		</linearGradient>&#10;		<path
   class="st5"
   d="M 37.1,34.2 32.9,30 20.4,42.5 c 0.5,0.5 1.2,0.5 2.1,0.1 l 14.6,-8.4"
   id="path16"
   style="fill:url(#SVGID_3_)" />&#10;		<linearGradient
   id="SVGID_4_"
   gradientUnits="userSpaceOnUse"
   x1="17.2973"
   y1="191.82381"
   x2="27.4599"
   y2="181.6613"
   gradientTransform="matrix(1,0,0,-1,0,202)">&#10;			<stop
   offset="0"
   style="stop-color:#32A071"
   id="stop17" />&#10;			<stop
   offset="6.850000e-002"
   style="stop-color:#2DA771"
   id="stop18" />&#10;			<stop
   offset="0.4762"
   style="stop-color:#15CF74"
   id="stop19" />&#10;			<stop
   offset="0.8009"
   style="stop-color:#06E775"
   id="stop20" />&#10;			<stop
   offset="1"
   style="stop-color:#00F076"
   id="stop21" />&#10;		</linearGradient>&#10;		<path
   class="st6"
   d="M 37.1,25.8 22.5,17.5 C 21.6,17 20.9,17.1 20.4,17.6 L 32.9,30 Z"
   id="path21"
   style="fill:url(#SVGID_4_)" />&#10;	</g>&#10;	<g
   id="g23"
   transform="translate(-10,-10)"
   style="display:inline">&#10;		<path
   class="st7"
   d="m 37,34.1 -14.5,8.2 c -0.8,0.5 -1.5,0.4 -2,0 v 0 l -0.1,0.1 v 0 l 0.1,0.1 v 0 c 0.5,0.4 1.2,0.5 2,0 z"
   id="path22" />&#10;		<path
   class="st8"
   d="M 20.4,42.3 C 20.1,42 20,41.5 20,40.9 V 41 c 0,0.6 0.2,1.1 0.5,1.4 v -0.1 z"
   id="path23" />&#10;	</g>&#10;	<path
   class="st8"
   d="m 32,21.3 -5,2.8 0.1,0.1 4.9,-2.8 C 32.7,21 33,20.5 33,20 v 0 c 0,0.5 -0.4,0.9 -1,1.3 z"
   id="path24"
   style="display:inline" />&#10;	<path
   class="st9"
   d="M 12.5,7.6 32,18.7 c 0.6,0.4 1,0.8 1,1.3 v 0 c 0,-0.5 -0.3,-1 -1,-1.4 L 12.5,7.5 C 11.1,6.7 10,7.4 10,9 v 0.1 c 0,-1.6 1.1,-2.3 2.5,-1.5 z"
   id="path25" />&#10;	<g
   id="g33"
   transform="translate(-10,-10)"
   inkscape:label="text">&#10;			<path
   class="st2"
   d="m 78.271824,31.750335 c -2.397514,0 -4.224191,1.814766 -4.224191,4.196645 0,2.381879 1.940844,4.196644 4.224191,4.196644 2.397514,0 4.224187,-1.814765 4.224187,-4.196644 0.114169,-2.381879 -1.826673,-4.196645 -4.224187,-4.196645 z m 0,6.80537 c -1.25584,0 -2.397514,-1.020805 -2.397514,-2.608725 0,-1.474497 1.141674,-2.608724 2.397514,-2.608724 1.255841,0 2.397514,1.020805 2.397514,2.608724 0,1.474497 -1.027506,2.608725 -2.397514,2.608725 z m -9.247553,-6.80537 c -2.397514,0 -4.224191,1.814766 -4.224191,4.196645 0,2.381879 1.940844,4.196644 4.224191,4.196644 2.283346,0 4.224191,-1.814765 4.224191,-4.196644 0,-2.381879 -1.940845,-4.196645 -4.224191,-4.196645 z m 0,6.80537 c -1.255841,0 -2.397514,-1.020805 -2.397514,-2.608725 0,-1.474497 1.141673,-2.608724 2.397514,-2.608724 1.25584,0 2.397513,1.020805 2.397513,2.608724 0,1.474497 -1.141673,2.608725 -2.397513,2.608725 z M 57.95004,32.997987 v 1.814765 h 4.338358 c -0.114167,1.020805 -0.456669,1.701342 -1.027506,2.268457 -0.570837,0.567114 -1.598342,1.361073 -3.310852,1.361073 -2.625849,0 -4.680861,-2.155034 -4.680861,-4.763758 0,-2.608725 2.055012,-4.763759 4.680861,-4.763759 1.484175,0 2.51168,0.567115 3.196686,1.247651 l 1.25584,-1.247651 C 61.37506,27.893959 59.890884,27.1 57.835873,27.1 54.182518,27.1 51.1,30.048994 51.1,33.678524 c 0,3.62953 3.082518,6.578523 6.735873,6.578523 1.940844,0 3.425019,-0.680537 4.566693,-1.814765 1.141673,-1.134228 1.598342,-2.83557 1.598342,-4.196644 0,-0.453691 0,-0.79396 -0.114167,-1.134228 H 57.95004 Z m 45.21026,1.474496 c -0.34251,-0.907382 -1.48417,-2.722148 -3.653358,-2.722148 -2.169181,0 -3.995853,1.701343 -3.995853,4.196645 0,2.381879 1.826672,4.196644 4.224193,4.196644 1.940848,0 3.082508,-1.134227 3.539188,-1.814765 l -1.48418,-0.907382 c -0.45667,0.680537 -1.14167,1.134228 -2.055008,1.134228 -0.913347,0 -1.598344,-0.453691 -2.055012,-1.247651 l 5.70836,-2.38188 z m -5.822539,1.361074 c 0,-1.587919 1.255845,-2.495301 2.169181,-2.495301 0.685008,0 1.370008,0.340268 1.598348,0.907382 z m -4.566691,4.083222 h 1.826682 V 27.553691 H 92.77107 Z m -3.082518,-7.259061 v 0 c -0.456668,-0.453691 -1.255835,-0.907383 -2.283341,-0.907383 -2.169181,0 -4.110023,1.814766 -4.110023,4.196645 0,2.381879 1.940842,4.196644 4.110023,4.196644 1.027506,0 1.826673,-0.453691 2.283341,-0.907382 h 0.114169 v 0.567114 c 0,1.58792 -0.913336,2.495302 -2.28335,2.495302 -1.141666,0 -1.826673,-0.79396 -2.169172,-1.474496 l -1.598343,0.680536 C 84.208524,42.638927 85.464369,44 87.519371,44 c 2.169181,0 3.995864,-1.24765 3.995864,-4.42349 v -7.599329 h -1.712514 v 0.680537 z m -2.169181,5.897987 c -1.255835,0 -2.397511,-1.020805 -2.397511,-2.495302 0,-1.474497 1.027506,-2.608725 2.397511,-2.608725 1.255845,0 2.28335,1.134228 2.28335,2.608725 0,1.361074 -0.913336,2.495302 -2.28335,2.495302 z M 111.95121,27.553691 h -4.45254 v 12.363088 h 1.82669 v -4.650336 h 2.62585 c 2.055,0 4.11001,-1.474496 4.11001,-3.856376 0,-2.381878 -2.05501,-3.856376 -4.11001,-3.856376 z m 0,5.897987 h -2.62585 v -4.196644 h 2.62585 c 1.37,0 2.16917,1.134228 2.16917,2.155033 0,0.907383 -0.79917,2.041611 -2.16917,2.041611 z m 11.53089,-1.701343 c -1.37001,0 -2.74002,0.567115 -3.31086,1.928189 l 1.59835,0.680537 c 0.3425,-0.680537 1.0275,-0.907383 1.71251,-0.907383 0.91334,0 1.94084,0.567114 1.94084,1.587919 v 0.113423 c -0.3425,-0.226846 -1.0275,-0.453691 -1.94084,-0.453691 -1.82668,0 -3.53919,1.020806 -3.53919,2.835571 0,1.701342 1.48418,2.722147 3.08252,2.722147 1.25584,0 1.94084,-0.567114 2.39751,-1.24765 h 0.11417 v 0.907382 h 1.82667 V 35.15302 c -0.11417,-2.155033 -1.82667,-3.402685 -3.88168,-3.402685 z m -0.22834,6.80537 c -0.57084,0 -1.48417,-0.340269 -1.48417,-1.020805 0,-0.907383 1.0275,-1.361074 1.94084,-1.361074 0.79917,0 1.25584,0.226845 1.71251,0.453691 -0.11417,1.020806 -1.14167,1.928188 -2.16918,1.928188 z m 10.5034,-6.578524 -2.16918,5.330873 h -0.11417 l -2.16918,-5.330873 h -2.05502 l 3.31086,7.485907 -1.94084,4.196644 h 1.94084 L 135.698,31.977181 Z m -16.78259,7.939598 h 1.82667 V 27.553691 h -1.82667 z"
   id="path3"
   inkscape:label="path3"
   style="stroke-width:1.13795" />&#10;		<path
   class="st10"
   d="m 53,23.1 c -0.4,0 -0.8,-0.1 -1.1,-0.4 -0.3,-0.2 -0.5,-0.6 -0.7,-1 l 0.7,-0.3 c 0.2,0.6 0.5,0.9 1.1,0.9 0.4,0 0.6,-0.1 0.8,-0.3 0.2,-0.2 0.3,-0.5 0.3,-0.9 V 17 h 0.8 v 4.1 c 0,0.7 -0.2,1.2 -0.5,1.5 C 54,23 53.6,23.1 53,23.1 Z"
   id="path26" />&#10;		<path
   class="st10"
   d="M 59.7,17.7 H 57 v 1.9 h 2.5 v 0.7 H 57 v 1.9 h 2.7 V 23 h -3.5 v -6 h 3.5 z"
   id="path27" />&#10;		<path
   class="st10"
   d="M 63,23 H 62.2 V 17.7 H 60.5 V 17 h 4.1 v 0.7 H 63 Z"
   id="path28" />&#10;		<path
   class="st10"
   d="m 65.3,23 v -0.8 l 3.2,-4.5 H 65.4 V 17 h 4 v 0.8 l -3.2,4.5 h 3.2 V 23 Z"
   id="path29" />&#10;		<path
   class="st10"
   d="M 72.5,23 H 71.7 V 17.7 H 70 V 17 h 4.1 v 0.7 H 72.4 V 23 Z"
   id="path30" />&#10;		<path
   class="st10"
   d="m 77.2,23 v -6 h 2.2 c 0.5,0 0.9,0.2 1.2,0.5 0.3,0.3 0.5,0.7 0.5,1.2 0,0.3 -0.1,0.5 -0.2,0.8 -0.1,0.2 -0.3,0.4 -0.6,0.5 v 0 c 0.3,0.1 0.5,0.3 0.7,0.5 0.2,0.2 0.3,0.5 0.3,0.9 0,0.5 -0.2,0.9 -0.5,1.2 C 80.4,22.8 80,23 79.5,23 Z M 78,19.6 h 1.4 c 0.3,0 0.5,-0.1 0.7,-0.3 0.2,-0.2 0.3,-0.4 0.3,-0.6 0,-0.2 -0.1,-0.4 -0.3,-0.6 -0.2,-0.2 -0.4,-0.3 -0.7,-0.3 H 78 Z m 0,2.7 h 1.6 c 0.3,0 0.5,-0.1 0.7,-0.3 0.2,-0.2 0.3,-0.4 0.3,-0.7 0,-0.2 -0.1,-0.5 -0.3,-0.7 -0.2,-0.2 -0.4,-0.3 -0.7,-0.3 H 78 Z"
   id="path31" />&#10;		<path
   class="st10"
   d="m 85.9,17.7 h -2.7 v 1.9 h 2.5 v 0.7 h -2.5 v 1.9 h 2.7 V 23 h -3.5 v -6 h 3.5 z"
   id="path32" />&#10;		<path
   class="st10"
   d="m 87.1,23 v -6 h 0.8 v 6 z"
   id="path33" />&#10;		</g>&#10;&#10;</svg>
