<svg id="Ebene_1" data-name="Ebene 1" xmlns="http://www.w3.org/2000/svg" viewBox="0 0 134.45 29.66"><defs><style>.cls-1{fill:none;}.cls-2{fill:#e30613;}</style></defs><title>OKBLogo</title><rect class="cls-1" width="3.7" height="2.59"/><rect class="cls-1" x="0.01" width="3.7" height="2.59"/><rect class="cls-1" x="0.01" width="3.7" height="2.59"/><rect class="cls-1" x="0.01" width="3.7" height="2.59"/><rect class="cls-1" x="0.01" width="3.7" height="2.59"/><path class="cls-2" d="M531.71,436.39V410.64h25.75v25.75H531.71Zm24.76-1V411.63H532.71V435.4h23.77Z" transform="translate(-527.82 -406.76)"/><polygon class="cls-2" points="8.86 16.75 15.38 27.38 27.26 27.38 20.73 16.76 27.29 6.11 15.41 6.11 8.86 16.75"/><path d="M572.19,410.62c1.68,0.77,2.38,2.59,2.38,4.51a5.81,5.81,0,0,1-1.1,3.54,3.86,3.86,0,0,1-3.1,1.38,3.72,3.72,0,0,1-2.81-1.14,5.15,5.15,0,0,1-1.24-3.71,5.83,5.83,0,0,1,1.1-3.61,3.14,3.14,0,0,1,.91-0.77A4.47,4.47,0,0,1,572.19,410.62ZM569.48,412a3.52,3.52,0,0,0-1.36,3.22,4,4,0,0,0,1.07,3,1.93,1.93,0,0,0,1.29.47,1.85,1.85,0,0,0,1.6-.89,4.51,4.51,0,0,0,.71-2.62,5.3,5.3,0,0,0-.16-1.34c-0.12-.45-0.61-2-2.15-2A2,2,0,0,0,569.48,412Z" transform="translate(-527.82 -406.76)"/><path d="M577.36,409.71V414a2.12,2.12,0,0,1,.48-0.63,2,2,0,0,1,1.45-.59,2.16,2.16,0,0,1,1.15.31,3.38,3.38,0,0,1,1.45,3.13,7.37,7.37,0,0,1-.08,1.05,3.72,3.72,0,0,1-.85,2,2.18,2.18,0,0,1-1.71.72,2,2,0,0,1-1.62-.7,2.6,2.6,0,0,1-.32-0.49v1.08h-1.54V409.71h1.6Zm0.77,4.79a2.2,2.2,0,0,0-.75,1.9,2.41,2.41,0,0,0,.69,1.89,1.14,1.14,0,0,0,1.41,0,2.43,2.43,0,0,0,.73-2,2.57,2.57,0,0,0-.59-1.8,1.2,1.2,0,0,0-.77-0.31A1.25,1.25,0,0,0,578.12,414.5Z" transform="translate(-527.82 -406.76)"/><path d="M584.06,412.9l1,3.49c0.16,0.65.32,1.3,0.44,2q0.07-.54.18-1.08c0.1-.45.2-0.92,0.31-1.37l0.78-3h1.92l0.91,3.41c0.11,0.38.2,0.77,0.3,1.17s0.13,0.56.19,0.84q0.05-.44.14-0.88c0-.23.11-0.47,0.16-0.69l0.18-.77,0.79-3.07h1.59l-2,7h-1.88l-0.92-3.31a15.7,15.7,0,0,1-.49-2.22c0,0.31-.08.61-0.14,0.91s-0.16.68-.24,1l-1,3.63h-1.88l-2.12-7h1.76Z" transform="translate(-527.82 -406.76)"/><path d="M597.24,419.87v-1a1.52,1.52,0,0,1-.18.31,2.22,2.22,0,0,1-4-1.3,2.29,2.29,0,0,1,.31-1.14,3.19,3.19,0,0,1,2.88-1.14l0.93,0a3.46,3.46,0,0,0-.1-0.74,1.21,1.21,0,0,0-1.28-.8,3.26,3.26,0,0,0-1.63.49,2.17,2.17,0,0,0-.32.27l0-1.57a5.3,5.3,0,0,1,2.15-.47,3.66,3.66,0,0,1,.93.11,2.08,2.08,0,0,1,1.6,1.41,5.71,5.71,0,0,1,.16,1.66v1.65q0,1,0,2c0,0.08,0,.16,0,0.24h-1.45ZM595.15,417a1.07,1.07,0,0,0-.33.4,0.94,0.94,0,0,0-.11.44,1.12,1.12,0,0,0,.08.39,0.94,0.94,0,0,0,.9.55,1.42,1.42,0,0,0,1.16-.65,2.6,2.6,0,0,0,.36-1.41A3.65,3.65,0,0,0,595.15,417Z" transform="translate(-527.82 -406.76)"/><path d="M601.73,409.71v10.16H600.1V409.71h1.63Z" transform="translate(-527.82 -406.76)"/><path d="M609.07,409.71v10.16h-1.54v-1.36a2.62,2.62,0,0,1-.26.6,2,2,0,0,1-1.77.88,2.16,2.16,0,0,1-1.15-.31c-0.68-.39-1.46-1.34-1.46-3.29a4,4,0,0,1,1.22-3.14,2.2,2.2,0,0,1,1.38-.47,2,2,0,0,1,1.63.77,2.87,2.87,0,0,1,.38.66v-4.52h1.58Zm-4.49,6.65a4.14,4.14,0,0,0,.11,1,1.39,1.39,0,0,0,1.29,1.22,1.28,1.28,0,0,0,1-.51,2.73,2.73,0,0,0,.46-1.65,2.57,2.57,0,0,0-.66-1.82,1.25,1.25,0,0,0-.83-0.33C605.27,414.26,604.58,414.81,604.58,416.36Z" transform="translate(-527.82 -406.76)"/><path d="M614.84,419.87V416.5c0-.77,0-1.7-0.59-2.09a1,1,0,0,0-.59-0.16,1.25,1.25,0,0,0-1.09.64,3.37,3.37,0,0,0-.35,1.72v3.26H610.6v-5.29c0-.56,0-1.12,0-1.68h1.57V414a2.44,2.44,0,0,1,2.15-1.18,3.15,3.15,0,0,1,.72.09,2,2,0,0,1,1.32,1.45,10.82,10.82,0,0,1,.14,2v3.56h-1.62Z" transform="translate(-527.82 -406.76)"/><path d="M619,417a2.28,2.28,0,0,0,.25.73,1.78,1.78,0,0,0,1.65.89,3.22,3.22,0,0,0,1.54-.43l0.41-.27,0,1.56a5.68,5.68,0,0,1-2.24.52,3.08,3.08,0,0,1-2.31-.9,3.7,3.7,0,0,1-.91-2.66,4.71,4.71,0,0,1,.53-2.24,2.79,2.79,0,0,1,2.51-1.46,2.7,2.7,0,0,1,1.58.46,3.6,3.6,0,0,1,1.24,2.7c0,0.36,0,.72,0,1.09H619Zm2.79-1.28a2.3,2.3,0,0,0-.1-0.64,1.3,1.3,0,0,0-1.26-1.06,1.21,1.21,0,0,0-.71.21,2,2,0,0,0-.73,1.5h2.79Z" transform="translate(-527.82 -406.76)"/><path d="M628.13,414.55a1.44,1.44,0,0,0-.53-0.09,1.39,1.39,0,0,0-1.3.85,4.82,4.82,0,0,0-.25,2.13v2.43h-1.63v-5.16c0-.6,0-1.21,0-1.81h1.53v1.66a3.46,3.46,0,0,1,.18-0.59,1.76,1.76,0,0,1,1.59-1.17,2.38,2.38,0,0,1,.44.05v1.69Z" transform="translate(-527.82 -406.76)"/><path d="M568.74,429.63l0.45-.65,0.7-.93,2.68-3.48h2.61l-3.28,4.06L570.84,430l4.58,6.31h-2.79l-3-4.21q-0.34-.45-0.63-0.89l-0.31-.5v5.6h-2.1V424.58h2.1v5.05Z" transform="translate(-527.82 -406.76)"/><path d="M580.65,436.28V435a1.91,1.91,0,0,1-.22.38,2.76,2.76,0,0,1-5-1.62,2.85,2.85,0,0,1,.39-1.42c0.78-1.26,2.37-1.42,3.59-1.42,0.39,0,.77,0,1.16,0a4.31,4.31,0,0,0-.12-0.93,1.51,1.51,0,0,0-1.59-1,4.07,4.07,0,0,0-2,.61,2.65,2.65,0,0,0-.4.33l-0.06-2a6.59,6.59,0,0,1,2.68-.58,4.56,4.56,0,0,1,1.16.13,2.59,2.59,0,0,1,2,1.76,7.09,7.09,0,0,1,.19,2.07v2.05q0,1.27,0,2.53c0,0.1,0,.2,0,0.3h-1.8ZM578,432.71a1.32,1.32,0,0,0-.42.5,1.17,1.17,0,0,0-.13.55,1.4,1.4,0,0,0,.1.48,1.17,1.17,0,0,0,1.12.68,1.77,1.77,0,0,0,1.45-.81,3.23,3.23,0,0,0,.45-1.76A4.54,4.54,0,0,0,578,432.71Z" transform="translate(-527.82 -406.76)"/><path d="M589.53,436.28v-4.19c0-1,0-2.12-.73-2.6a1.27,1.27,0,0,0-.73-0.2,1.56,1.56,0,0,0-1.36.79,4.18,4.18,0,0,0-.43,2.14v4.06h-2v-6.59c0-.7,0-1.39-0.06-2.09h2v1.34a3,3,0,0,1,2.68-1.47,3.91,3.91,0,0,1,.89.12,2.46,2.46,0,0,1,1.64,1.81,13.55,13.55,0,0,1,.18,2.45v4.44h-2Z" transform="translate(-527.82 -406.76)"/><path d="M595.86,427.6h1.83v1.69h-1.83V433c0,0.36,0,1.57,1.18,1.57a2.23,2.23,0,0,0,.73-0.13l0,1.77a4.59,4.59,0,0,1-1.33.23,2.68,2.68,0,0,1-1.92-.75,4.67,4.67,0,0,1-.66-3.08v-3.3H592.4V427.6h1.51v-1.74l2-.7v2.43Z" transform="translate(-527.82 -406.76)"/><path d="M604.09,427.8a4.38,4.38,0,0,1,2.29,4.16,5.63,5.63,0,0,1-.3,1.85,4,4,0,0,1-6.39,1.64,4.48,4.48,0,0,1-1.42-3.51,5.74,5.74,0,0,1,.31-1.89,3.82,3.82,0,0,1,3.76-2.62A4.14,4.14,0,0,1,604.09,427.8Zm-2.71,1.62a3,3,0,0,0-1,2.47,3.49,3.49,0,0,0,.92,2.52,1.55,1.55,0,0,0,1,.35c0.94,0,1.89-.75,1.89-2.87a3.65,3.65,0,0,0-.4-1.87,1.72,1.72,0,0,0-1.49-.93A1.59,1.59,0,0,0,601.38,429.42Z" transform="translate(-527.82 -406.76)"/><path d="M613,436.28v-4.19c0-1,0-2.12-.73-2.6a1.27,1.27,0,0,0-.73-0.2,1.56,1.56,0,0,0-1.36.79,4.18,4.18,0,0,0-.43,2.14v4.06h-2v-6.59c0-.7,0-1.39-0.06-2.09h2l0,1.34a3,3,0,0,1,2.68-1.47,3.91,3.91,0,0,1,.89.12,2.46,2.46,0,0,1,1.64,1.81,13.48,13.48,0,0,1,.18,2.45v4.44h-2Z" transform="translate(-527.82 -406.76)"/><path d="M621.2,436.28V435a1.86,1.86,0,0,1-.22.38,2.76,2.76,0,0,1-5-1.62,2.86,2.86,0,0,1,.39-1.42c0.78-1.26,2.37-1.42,3.59-1.42,0.39,0,.78,0,1.16,0A4.26,4.26,0,0,0,621,430a1.51,1.51,0,0,0-1.59-1,4.07,4.07,0,0,0-2,.61,2.72,2.72,0,0,0-.4.33l-0.06-2a6.6,6.6,0,0,1,2.68-.58,4.56,4.56,0,0,1,1.16.13,2.59,2.59,0,0,1,2,1.76,7.06,7.06,0,0,1,.19,2.07v2.05q0,1.27,0,2.53c0,0.1,0,.2,0,0.3h-1.8Zm-2.61-3.56a1.33,1.33,0,0,0-.42.5,1.18,1.18,0,0,0-.13.55,1.4,1.4,0,0,0,.1.48,1.17,1.17,0,0,0,1.12.68,1.77,1.77,0,0,0,1.45-.81,3.23,3.23,0,0,0,.45-1.76A4.54,4.54,0,0,0,618.59,432.71Z" transform="translate(-527.82 -406.76)"/><path d="M626.78,423.62v12.65h-2V423.62h2Z" transform="translate(-527.82 -406.76)"/><path d="M630.68,423.62V429a2.64,2.64,0,0,1,.6-0.78,2.45,2.45,0,0,1,1.8-.73,2.7,2.7,0,0,1,1.43.38c0.79,0.46,1.8,1.59,1.8,3.89a9.19,9.19,0,0,1-.1,1.31,4.63,4.63,0,0,1-1.06,2.5,2.72,2.72,0,0,1-2.13.9,2.48,2.48,0,0,1-2-.88,3.24,3.24,0,0,1-.4-0.61v1.34h-1.92V423.62h2Zm1,6a2.74,2.74,0,0,0-.94,2.37,3,3,0,0,0,.87,2.35,1.42,1.42,0,0,0,1.76,0,3,3,0,0,0,.91-2.47,3.2,3.2,0,0,0-.73-2.24,1.49,1.49,0,0,0-1-.38A1.55,1.55,0,0,0,631.63,429.58Z" transform="translate(-527.82 -406.76)"/><path d="M642.46,436.28V435a1.86,1.86,0,0,1-.22.38,2.76,2.76,0,0,1-5-1.62,2.84,2.84,0,0,1,.39-1.42c0.77-1.26,2.37-1.42,3.59-1.42,0.39,0,.77,0,1.16,0a4.31,4.31,0,0,0-.12-0.93,1.51,1.51,0,0,0-1.6-1,4.07,4.07,0,0,0-2,.61,2.75,2.75,0,0,0-.4.33l-0.06-2a6.6,6.6,0,0,1,2.68-.58,4.56,4.56,0,0,1,1.16.13,2.59,2.59,0,0,1,2,1.76,7,7,0,0,1,.19,2.07v2.05q0,1.27,0,2.53c0,0.1,0,.2,0,0.3h-1.8Zm-2.61-3.56a1.33,1.33,0,0,0-.42.5,1.19,1.19,0,0,0-.13.55,1.41,1.41,0,0,0,.1.48,1.17,1.17,0,0,0,1.12.68,1.77,1.77,0,0,0,1.45-.81,3.23,3.23,0,0,0,.45-1.76A4.54,4.54,0,0,0,639.85,432.71Z" transform="translate(-527.82 -406.76)"/><path d="M651.34,436.28v-4.19c0-1,0-2.12-.73-2.6a1.27,1.27,0,0,0-.73-0.2,1.56,1.56,0,0,0-1.36.79,4.19,4.19,0,0,0-.43,2.14v4.06h-2v-6.59c0-.7,0-1.39-0.06-2.09h2l0,1.34a3,3,0,0,1,2.68-1.47,3.91,3.91,0,0,1,.89.12,2.45,2.45,0,0,1,1.64,1.81,13.43,13.43,0,0,1,.18,2.45v4.44h-2Z" transform="translate(-527.82 -406.76)"/><path d="M657.08,431.11c0.24-.36.48-0.73,0.72-1.08l1.76-2.43h2.34L659,431.42l3.28,4.85h-2.5L658,433.64c-0.19-.33-0.39-0.65-0.57-1s-0.27-.46-0.39-0.7v4.31h-2V423.62h2v7.49Z" transform="translate(-527.82 -406.76)"/></svg>