<?xml version="1.0" standalone="no"?>
<!DOCTYPE svg PUBLIC "-//W3C//DTD SVG 20010904//EN"
 "http://www.w3.org/TR/2001/REC-SVG-20010904/DTD/svg10.dtd">
<svg version="1.0" xmlns="http://www.w3.org/2000/svg"
 width="3075.000000pt" height="839.000000pt" viewBox="0 0 3075.000000 839.000000"
 preserveAspectRatio="xMidYMid meet">

<g transform="translate(0.000000,839.000000) scale(0.100000,-0.100000)"
fill="#000000" stroke="none">
<path d="M14539 7007 c-194 -66 -278 -241 -279 -579 l0 -87 -122 -3 -123 -3
-3 -137 -3 -138 126 0 125 0 2 -587 3 -588 173 -3 172 -2 0 590 0 590 150 0
151 0 -3 138 -3 137 -147 3 -148 3 0 115 c0 140 13 195 55 240 30 31 37 34 91
34 37 0 75 -8 103 -20 24 -11 44 -20 46 -20 7 0 26 303 19 309 -15 14 -149 31
-236 31 -59 0 -102 -7 -149 -23z"/>
<path d="M15563 7015 c-98 -30 -180 -100 -227 -192 -47 -93 -58 -150 -63 -320
l-6 -162 -121 -3 -121 -3 -3 -137 -3 -138 126 0 125 0 0 -590 0 -590 173 2
172 3 3 588 2 587 145 0 145 0 0 140 0 140 -145 0 -145 0 0 123 c0 145 11 190
55 234 30 30 39 33 92 33 39 0 72 -7 98 -20 24 -12 41 -16 45 -10 8 13 32 291
25 298 -2 3 -35 11 -72 18 -87 17 -246 17 -300 -1z"/>
<path d="M11295 6988 c-3 -7 -4 -483 -3 -1058 l3 -1045 173 -3 172 -2 0 404
c0 314 3 421 15 481 38 199 135 305 278 305 99 0 154 -40 194 -141 16 -39 18
-99 23 -544 l5 -500 173 -3 173 -2 -3 532 c-4 511 -5 536 -26 611 -44 161
-133 273 -250 317 -79 31 -199 37 -282 16 -99 -26 -149 -54 -227 -132 l-73
-72 0 424 0 424 -170 0 c-127 0 -172 -3 -175 -12z"/>
<path d="M16135 6988 c-3 -7 -4 -483 -3 -1058 l3 -1045 172 -3 172 -2 4 437
c3 381 6 446 21 497 54 182 146 263 289 254 94 -6 143 -47 180 -152 7 -20 13
-211 17 -531 l5 -500 173 -3 173 -2 -3 537 c-5 596 -4 587 -73 730 -66 135
-179 209 -335 220 -152 11 -288 -43 -390 -154 l-60 -66 0 427 0 426 -170 0
c-127 0 -172 -3 -175 -12z"/>
<path d="M9205 6880 c-84 -11 -197 -47 -262 -86 -158 -92 -253 -281 -253 -503
0 -183 47 -299 163 -406 69 -65 125 -96 388 -218 157 -73 219 -144 219 -253 0
-106 -57 -182 -170 -226 -43 -17 -76 -22 -150 -22 -111 0 -189 19 -307 74
l-81 38 -6 -32 c-10 -58 -29 -316 -24 -321 3 -3 59 -19 124 -36 144 -37 353
-50 481 -29 260 42 429 180 489 400 25 90 25 274 0 355 -58 191 -167 292 -442
411 -161 69 -224 105 -262 148 -41 47 -56 97 -48 165 18 152 117 231 288 231
84 0 202 -24 282 -56 33 -13 61 -22 63 -20 5 4 33 258 33 297 0 24 -6 28 -72
47 -133 39 -329 57 -453 42z"/>
<path d="M1400 4125 l0 -2705 2713 2 2712 3 3 2703 2 2702 -2715 0 -2715 0 0
-2705z m5210 10 l0 -2495 -2495 0 -2495 0 0 2495 0 2495 2495 0 2495 0 0
-2495z"/>
<path d="M3823 6368 c-10 -13 -104 -164 -485 -783 -436 -707 -804 -1305 -849
-1376 l-47 -76 217 -354 c120 -195 288 -469 375 -609 86 -140 299 -488 474
-772 l317 -517 1253 -1 1254 0 -19 32 c-11 18 -213 348 -450 733 -237 385
-539 877 -672 1093 l-241 394 37 61 c20 34 89 145 152 247 94 152 674 1093
916 1485 34 55 109 178 168 273 59 95 107 175 107 177 0 3 -562 5 -1249 5
-987 0 -1251 -3 -1258 -12z"/>
<path d="M10532 6355 c-233 -53 -396 -229 -464 -502 -18 -73 -22 -115 -21
-248 0 -138 4 -173 26 -257 71 -270 225 -431 465 -484 95 -21 313 -15 420 11
l73 18 -7 156 c-4 86 -8 157 -9 159 -1 1 -33 -10 -71 -24 -52 -20 -93 -28
-170 -32 -93 -4 -106 -2 -156 20 -131 60 -203 196 -214 403 -14 235 82 429
237 480 83 28 215 16 320 -29 14 -6 18 12 30 136 8 79 14 147 14 152 0 6 -31
18 -70 28 -96 26 -318 33 -403 13z"/>
<path d="M13159 6355 c-80 -13 -223 -56 -271 -81 -26 -13 -28 -19 -28 -73 0
-32 3 -106 6 -164 l7 -106 36 29 c95 76 249 130 372 130 174 0 265 -78 283
-246 l7 -61 -198 -6 c-225 -6 -304 -20 -408 -71 -160 -79 -245 -223 -245 -416
0 -132 39 -231 121 -311 94 -92 221 -135 367 -126 134 8 268 84 340 192 l29
44 7 -52 c3 -29 6 -69 6 -89 0 -70 -4 -68 162 -68 l150 0 -7 98 c-4 53 -10
293 -15 532 -9 475 -13 506 -70 621 -62 121 -172 197 -327 224 -95 17 -222 17
-324 0z m411 -822 c0 -10 -5 -51 -10 -92 -17 -129 -81 -234 -175 -284 -57 -31
-204 -32 -255 -1 -56 33 -80 77 -80 148 1 103 40 165 133 206 69 31 116 38
260 39 115 1 127 -1 127 -16z"/>
<path d="M18035 6355 c-113 -22 -270 -75 -286 -98 -6 -8 0 -309 7 -315 1 -2
22 9 46 26 123 84 223 116 359 117 98 0 110 -2 164 -30 51 -26 64 -38 88 -85
18 -36 30 -78 34 -121 l6 -66 -199 -6 c-158 -4 -215 -9 -279 -26 -214 -57
-329 -171 -366 -365 -55 -293 146 -535 447 -536 154 0 303 81 386 209 l28 45
0 -75 c0 -40 3 -91 6 -111 l7 -38 149 0 149 0 -6 198 c-4 108 -10 350 -15 537
-6 269 -11 353 -24 400 -68 242 -207 341 -496 350 -85 3 -150 0 -205 -10z
m412 -877 c-12 -140 -61 -242 -141 -297 -59 -40 -108 -54 -184 -49 -131 7
-196 70 -190 183 9 164 125 233 392 234 l129 1 -6 -72z"/>
<path d="M20931 6355 c-270 -61 -410 -271 -360 -540 15 -80 48 -142 102 -192
57 -53 98 -73 254 -128 70 -24 138 -52 152 -63 91 -67 96 -184 11 -255 -80
-68 -261 -62 -427 13 -36 17 -67 29 -68 28 -1 -2 -7 -68 -12 -148 -7 -102 -6
-148 1 -156 11 -12 104 -35 210 -54 85 -14 250 -12 330 5 199 42 339 173 377
353 16 79 6 213 -21 284 -28 74 -102 156 -177 195 -32 17 -105 48 -163 68 -58
21 -122 46 -143 57 -102 51 -100 182 4 243 29 17 51 20 144 19 104 -1 137 -8
266 -50 14 -5 17 10 23 108 4 62 9 127 12 144 l6 31 -104 22 c-134 29 -328 36
-417 16z"/>
<path d="M22142 6350 c-232 -61 -381 -247 -438 -546 -25 -135 -15 -368 20
-489 36 -118 78 -196 150 -272 70 -75 143 -122 251 -159 75 -27 90 -28 250
-28 189 -1 243 9 373 69 l72 34 0 155 c0 86 -2 156 -5 156 -2 0 -28 -14 -57
-31 -72 -43 -180 -85 -255 -99 -86 -17 -216 -8 -276 18 -105 47 -190 164 -204
282 l-6 50 453 0 453 0 -7 121 c-28 467 -180 697 -497 748 -95 16 -195 12
-277 -9z m249 -270 c105 -29 172 -127 194 -282 l7 -48 -287 0 -288 0 6 48 c24
206 189 332 368 282z"/>
<path d="M23769 6356 c-52 -18 -99 -49 -141 -93 -44 -45 -104 -142 -115 -186
-6 -23 -10 12 -13 113 l-5 145 -152 3 -153 3 0 -731 0 -730 169 0 169 0 5 393
c6 425 12 488 64 591 32 64 58 93 107 118 34 17 53 20 130 16 50 -3 99 -8 109
-13 16 -7 17 6 17 183 0 188 0 190 -22 196 -39 10 -131 6 -169 -8z"/>
<path d="M19094 6326 c-3 -9 -4 -246 -1 -528 5 -561 7 -583 66 -713 41 -89
126 -174 206 -205 82 -32 220 -39 301 -15 91 26 171 73 241 142 l63 62 0 -94
0 -95 165 0 165 0 -2 728 -3 727 -170 0 -170 0 -5 -445 c-5 -395 -8 -451 -24
-500 -56 -169 -134 -239 -264 -240 -76 0 -123 19 -158 66 -56 73 -58 88 -64
624 l-5 495 -168 3 c-141 2 -168 0 -173 -12z"/>
<path d="M27837 4053 c-4 -3 -7 -597 -7 -1320 l0 -1313 215 0 215 0 0 436 c0
244 4 433 9 430 4 -3 24 -32 43 -63 93 -155 482 -780 492 -791 9 -9 74 -12
279 -10 l267 3 -174 255 c-96 140 -248 363 -338 494 -90 132 -162 244 -162
250 1 6 135 189 298 406 l298 395 -243 3 c-134 1 -249 0 -255 -2 -6 -2 -109
-145 -229 -318 -120 -172 -232 -333 -249 -357 l-31 -43 -3 776 -2 776 -208 0
c-115 0 -212 -3 -215 -7z"/>
<path d="M21420 2730 l0 -1320 215 0 215 0 0 1320 0 1320 -215 0 -215 0 0
-1320z"/>
<path d="M22210 2730 l0 -1320 210 0 210 0 0 111 0 111 40 -51 c105 -133 279
-211 470 -211 374 0 612 266 670 750 34 286 -8 590 -110 797 -107 217 -280
333 -519 349 -108 7 -209 -13 -308 -61 -56 -28 -89 -54 -152 -122 l-81 -86 0
527 0 526 -215 0 -215 0 0 -1320z m933 142 c90 -40 163 -146 203 -297 15 -57
19 -105 19 -255 0 -163 -3 -195 -23 -265 -44 -153 -111 -247 -211 -293 -46
-21 -63 -24 -130 -20 -89 5 -138 27 -199 89 -48 47 -102 152 -128 249 -26 94
-26 378 -1 470 52 183 155 308 282 341 47 13 138 3 188 -19z"/>
<path d="M8780 2640 l0 -1230 225 0 225 0 0 571 0 572 73 -104 c112 -160 551
-790 641 -921 l81 -117 293 0 c232 -1 292 2 286 12 -4 6 -26 37 -49 67 -23 30
-158 215 -300 410 -143 195 -332 456 -422 579 -90 123 -163 227 -163 231 0 5
200 262 444 573 244 311 447 570 450 576 5 8 -70 11 -266 11 l-273 0 -111
-147 c-62 -82 -170 -224 -241 -318 -70 -93 -198 -262 -283 -375 l-155 -204 -3
522 -2 522 -225 0 -225 0 0 -1230z"/>
<path d="M14903 3663 l-213 -75 0 -179 0 -179 -155 0 -155 0 0 -175 0 -175
154 0 155 0 4 -537 c3 -479 5 -545 21 -598 29 -99 65 -163 126 -229 97 -103
210 -146 385 -146 102 0 204 12 264 32 l34 10 -5 180 c-3 98 -7 181 -9 183 -2
2 -29 -5 -59 -15 -65 -23 -167 -26 -214 -6 -46 19 -82 70 -101 141 -12 49 -15
137 -15 522 l0 463 190 0 190 0 -2 173 -3 172 -187 3 -188 2 -2 254 -3 254
-212 -75z"/>
<path d="M13471 3264 c-133 -28 -254 -105 -342 -217 l-38 -48 -3 118 -3 118
-203 3 -202 2 2 -907 3 -908 210 0 210 0 6 535 c5 511 6 539 27 615 44 159
112 259 211 307 61 30 198 33 250 4 63 -34 100 -87 130 -181 12 -42 16 -151
20 -665 l6 -615 210 0 210 0 0 665 c0 659 0 666 -23 750 -63 237 -192 380
-383 425 -79 18 -212 18 -298 -1z"/>
<path d="M11400 3264 c-14 -2 -59 -9 -100 -15 -81 -12 -271 -69 -334 -101
l-38 -19 7 -197 c4 -108 9 -199 11 -201 2 -2 25 12 51 32 66 48 173 100 263
128 106 33 288 33 372 0 107 -42 164 -134 175 -283 l6 -78 -194 0 c-291 -1
-409 -21 -565 -95 -199 -96 -299 -269 -298 -520 0 -128 21 -207 83 -302 119
-185 393 -286 616 -228 133 35 266 128 340 237 l33 50 6 -89 c4 -48 9 -107 12
-130 l5 -43 191 0 191 0 -6 48 c-9 71 -18 336 -27 832 -7 407 -10 452 -29 525
-81 306 -267 439 -626 450 -66 2 -131 2 -145 -1z m410 -1076 c-1 -211 -104
-390 -258 -448 -80 -31 -217 -26 -282 10 -94 53 -130 156 -95 276 13 47 27 69
69 110 85 82 193 110 439 113 l127 1 0 -62z"/>
<path d="M16383 3256 c-287 -55 -507 -230 -618 -494 -63 -149 -79 -245 -80
-452 0 -205 15 -289 76 -435 158 -380 543 -573 969 -485 446 91 715 536 649
1075 -49 396 -283 687 -624 775 -104 27 -276 34 -372 16z m312 -395 c78 -39
137 -102 181 -194 45 -95 64 -188 64 -317 0 -299 -87 -502 -250 -579 -48 -23
-68 -26 -160 -26 -101 0 -108 1 -168 34 -99 54 -164 149 -205 296 -28 101 -35
364 -13 459 43 184 151 312 295 353 75 21 182 10 256 -26z"/>
<path d="M18522 3255 c-111 -20 -210 -72 -291 -152 -37 -37 -77 -81 -89 -98
l-21 -30 -1 128 0 127 -200 0 -200 0 0 -910 0 -910 214 0 215 0 3 548 c4 535
4 549 27 622 45 148 114 245 209 291 66 32 189 33 250 1 53 -28 96 -87 124
-171 22 -65 22 -78 26 -678 l3 -613 215 0 214 0 0 608 c0 737 -5 796 -90 968
-108 221 -330 319 -608 269z"/>
<path d="M20125 3255 c-109 -18 -243 -55 -333 -93 l-66 -29 2 -169 c3 -156 9
-234 18 -234 2 0 24 16 49 35 61 46 195 111 270 130 146 38 303 29 399 -23 86
-47 127 -126 142 -274 l6 -68 -198 0 c-375 0 -567 -53 -710 -196 -104 -103
-154 -237 -154 -414 0 -171 47 -287 159 -393 262 -246 700 -193 889 108 l32
50 0 -70 c0 -38 3 -100 7 -137 l6 -68 190 0 190 0 -7 113 c-4 61 -11 351 -16
642 -9 603 -14 649 -89 800 -71 144 -205 243 -376 280 -105 23 -303 27 -410
10z m481 -1082 c-10 -111 -24 -170 -56 -238 -40 -84 -88 -136 -161 -175 -107
-57 -263 -54 -351 7 -59 40 -81 98 -76 193 4 65 10 88 34 127 70 114 204 159
483 162 l134 1 -7 -77z"/>
<path d="M24645 3259 c-94 -13 -240 -52 -339 -92 l-81 -32 4 -200 c2 -110 5
-202 7 -204 2 -2 30 14 61 36 78 55 164 96 253 124 60 19 98 23 190 23 63 0
133 -5 156 -12 124 -37 192 -133 201 -286 l6 -86 -193 0 c-375 0 -586 -61
-721 -208 -146 -160 -187 -445 -92 -649 56 -122 187 -232 326 -275 103 -33
274 -33 369 0 119 41 256 148 304 238 10 19 22 34 26 34 5 0 8 -35 8 -77 0
-43 3 -102 6 -130 l7 -53 190 0 190 0 -7 83 c-4 45 -11 332 -16 637 -5 305
-14 581 -20 612 -65 354 -256 509 -640 523 -69 2 -156 0 -195 -6z m455 -1081
c-1 -192 -87 -355 -225 -426 -39 -20 -69 -27 -136 -30 -184 -9 -282 66 -282
218 0 111 51 198 143 245 96 48 175 62 373 64 l127 1 0 -72z"/>
<path d="M26748 3260 c-146 -25 -284 -106 -369 -218 l-48 -62 -3 122 -3 123
-200 0 -200 0 -3 -907 -2 -908 214 0 215 0 3 533 c4 513 5 535 26 612 47 167
111 264 205 309 144 69 295 28 358 -97 48 -93 51 -135 56 -764 l5 -593 209 0
210 0 -3 678 c-4 760 -1 725 -80 892 -49 101 -134 192 -218 233 -102 50 -247
68 -372 47z"/>
</g>
</svg>
