<?xml version="1.0" encoding="UTF-8"?>
<svg width="601px" height="159px" viewBox="0 0 601 159" version="1.1" xmlns="http://www.w3.org/2000/svg" xmlns:xlink="http://www.w3.org/1999/xlink">
    <!-- Generator: Sketch 53.2 (72643) - https://sketchapp.com -->
    <title>valiant</title>
    <desc>Created with Sketch.</desc>
    <g id="Page-1" stroke="none" stroke-width="1" fill="none" fill-rule="evenodd">
        <g id="valiant" fill="#725BA7" fill-rule="nonzero">
            <path d="M540,19.4 L568.8,19.4 L568.8,48.5 L597.4,48.5 L597.4,72.4 L568.8,72.4 L568.8,112 C568.8,127.9 575.3,131.6 586.8,131.6 C591.4,131.6 596.1,130.8 600.5,129.3 L600.5,153 C600.5,153 595.9,156.7 582.7,156.7 C546.7,156.7 540,138.7 540,118.6 L540,19.4 Z M424.1,154.6 L453.2,154.6 L453.2,97.4 C453.2,82.5 459.9,70.9 475.2,70.9 C487.8,70.9 494.3,78.9 494.3,95.6 L494.3,154.6 L523.2,154.6 L523.2,90.2 C523.2,63.4 512.2,45.2 484.5,45.2 C471.1,45.2 459.5,50.3 452.6,61.4 L452.6,48.5 L424.3,48.5 L424.1,154.6 Z M356.4,45.2 C343.3,45.2 330.3,47.5 318,51.9 L318,75.8 C328.7,71.1 340.3,68.6 352,68.5 C370,68.5 379.5,75.4 379.5,91.7 C371.7,89.5 363.6,88.5 355.6,88.6 C332.4,88.6 310.5,100.7 310.5,124.4 C310.5,146.4 326.5,157.9 347.8,157.9 C362,157.9 372.8,153.3 380,144.2 L380.8,154.5 L406.5,154.5 L406.5,93.3 C406.6,61.4 387.8,45.2 356.4,45.2 Z M356.9,136.1 C345.3,136.9 338.4,132 337.8,123.5 C337.3,113.7 347.1,109.3 357.6,108.6 C371.5,107.8 378.7,112.7 379,119.6 C379.4,128.1 372.9,135.3 356.9,136.1 Z M265.1,16.8 C264.8,25.7 271.7,33.2 280.6,33.6 C281.1,33.6 281.6,33.6 282.1,33.6 C291.3,33.6 298.8,26.1 298.8,16.9 C298.8,7.7 291.3,0.2 282.1,0.2 C273.2,-0.3 265.6,6.6 265.1,15.5 C265.1,15.8 265.1,16.3 265.1,16.8 L265.1,16.8 Z M267.7,154.6 L297,154.6 L297,48.5 L267.6,48.5 L267.6,154.6 L267.7,154.6 Z M220.8,154.6 L249.9,154.6 L249.9,2.9 L220.8,2.9 L220.8,154.6 Z M153.7,45.2 C145,45.3 136.4,46.5 128,48.9 L118.8,75.1 C128.4,70.8 138.7,68.6 149.2,68.7 C167.2,68.7 176.8,75.6 176.8,91.9 C169,89.7 160.9,88.7 152.8,88.8 C129.8,88.8 107.8,100.9 107.8,124.6 C107.8,146.6 123.8,158.1 145.1,158.1 C159.3,158.1 170.1,153.5 177.3,144.4 L178.1,154.7 L203.8,154.7 L203.8,93.4 C203.9,61.4 185.1,45.2 153.7,45.2 Z M154.2,136.1 C142.6,136.9 135.7,132 135.1,123.5 C134.6,113.7 144.4,109.3 154.9,108.6 C168.8,107.8 176,112.7 176.3,119.6 C176.9,128.1 170.2,135.3 154.2,136.1 Z M41.4,154.6 L71.5,154.6 L112.7,48.5 L82.3,48.5 L57,124.2 L32.6,48.5 L0.5,48.5 L41.4,154.6 Z" id="Shape"></path>
        </g>
    </g>
</svg>