<?xml version="1.0" encoding="utf-8"?>
<!-- Generator: Adobe Illustrator 25.2.3, SVG Export Plug-In . SVG Version: 6.00 Build 0)  -->
<svg version="1.1" id="Logo" xmlns="http://www.w3.org/2000/svg" xmlns:xlink="http://www.w3.org/1999/xlink" x="0px" y="0px"
	 viewBox="0 0 1984.252 297.638" style="enable-background:new 0 0 1984.252 297.638;" xml:space="preserve">
<style type="text/css">
	.st0{fill:#FFFFFF;}
	.st1{fill:#F84914;}
</style>
<g>
	<path d="M428.423,86.038l26.675,103.486l31.174-103.486h41.78l31.174,103.486l26.675-103.486h50.136l-53.35,174.835h-44.351
		l-31.175-106.058l-31.174,106.058h-44.351l-53.35-174.835H428.423z"/>
	<path d="M657.568,192.417V86.038h49.815v103.165c0,25.068,8.999,33.746,26.675,33.746s26.675-8.678,26.675-33.746V86.038h49.815
		v106.379c0,50.136-32.139,72.634-76.491,72.634C689.707,265.051,657.568,242.553,657.568,192.417z M665.603,39.115
		c0-14.784,10.606-26.997,27.64-26.997s27.639,12.213,27.639,26.997s-10.606,26.996-27.639,26.996S665.603,53.899,665.603,39.115z
		 M747.235,39.115c0-14.784,10.606-26.997,27.639-26.997c17.033,0,27.64,12.213,27.64,26.997s-10.606,26.996-27.64,26.996
		C757.841,66.111,747.235,53.899,747.235,39.115z"/>
	<path d="M836.856,242.553l17.355-38.887c17.997,12.212,37.923,20.569,58.171,20.569c11.248,0,18.319-4.821,18.319-12.856
		c0-7.071-3.857-10.606-14.463-13.819l-29.889-8.678c-24.746-7.071-43.387-24.747-43.387-50.458
		c0-31.174,21.533-56.564,68.456-56.564c23.461,0,49.815,9.32,66.206,21.533l-19.605,36.638
		c-17.997-11.57-35.353-17.355-48.529-17.355c-11.891,0-16.069,5.463-16.069,10.927c0,4.499,1.607,8.999,10.606,11.57l29.889,8.678
		c29.568,8.678,47.244,27.318,47.244,53.671c0,34.068-25.069,57.529-67.491,57.529C882.171,265.051,854.211,255.087,836.856,242.553
		z"/>
	<path d="M1024.223,86.038V39.115h49.815v46.923h35.674v40.494h-35.674v74.241c0,17.355,7.07,22.176,16.712,22.176
		c7.392,0,14.463-2.571,22.497-6.427v41.459c-9.642,3.856-23.14,7.071-37.281,7.071c-33.746,0-51.743-16.069-51.743-50.78v-87.739
		h-21.212V86.038H1024.223z"/>
	<path d="M1134.139,175.384c0-51.101,27.639-93.524,80.347-93.524c47.565,0,76.811,33.746,76.811,88.703
		c0,6.106-0.321,11.249-0.964,17.355h-106.379c0.643,21.854,11.892,35.031,34.388,35.031c16.069,0,30.21-9.642,37.281-17.997
		l28.925,32.46c-20.569,20.569-42.745,27.639-66.206,27.639C1163.706,265.051,1134.139,230.662,1134.139,175.384z M1243.089,152.244
		c-0.643-18.32-9.642-29.89-28.925-29.89c-17.033,0-28.603,9.963-30.21,29.89H1243.089z"/>
	<path d="M1370.034,86.038v16.391c10.606-13.177,27.639-20.569,46.923-20.569c44.351,0,62.028,22.497,62.028,72.633v106.38h-49.815
		V159.314c0-25.068-9.963-35.353-27.639-35.353c-13.177,0-23.14,7.713-27.961,17.033v119.878h-49.815V86.038H1370.034z"/>
	<path d="M1563.46,86.038V105c8.034-15.748,24.104-23.14,39.531-23.14c8.034,0,16.069,1.607,19.604,2.571v46.6
		c-7.392-2.249-15.748-4.177-24.104-4.177c-16.713,0-26.675,7.713-31.497,18.64v115.378h-49.815V86.038H1563.46z"/>
	<path d="M1636.414,173.455c0-55.278,33.745-91.595,84.845-91.595s84.847,36.317,84.847,91.595
		c0,55.279-33.746,91.596-84.847,91.596S1636.414,228.734,1636.414,173.455z M1755.648,173.455c0-28.282-9.642-49.493-34.389-49.493
		s-34.388,21.211-34.388,49.493c0,28.283,9.641,49.494,34.388,49.494S1755.648,201.738,1755.648,173.455z"/>
	<path d="M1846.029,86.038V39.115h49.815v46.923h35.674v40.494h-35.674v74.241c0,17.355,7.071,22.176,16.712,22.176
		c7.392,0,14.463-2.571,22.497-6.427v41.459c-9.641,3.856-23.139,7.071-37.281,7.071c-33.746,0-51.743-16.069-51.743-50.78v-87.739
		h-21.212V86.038H1846.029z"/>
</g>
<g id="Bildmarke_5_">
	<rect id="Fond_3_" y="14.173" class="st0" width="283.464" height="283.465"/>
	<path id="Bildmarke_6_" class="st1" d="M0,14.173v283.465h283.464V14.173H0z M138.768,240.168l12.665,14.355
		c-4.091,6.611-10.263,6.68-10.263,6.68s-8.584,0.645-10.005-8.076C130.307,247.824,134.979,243.371,138.768,240.168z
		 M135.614,220.471c-0.151-3.144,1.621-6.602,5.42-7.236c3.427-0.567,6.029,2.051,6.606,5.058
		c1.191,6.132-6.269,10.371-6.269,10.371S135.829,225.139,135.614,220.471z M244.18,260.871h-32.341l-14.628-64.296l-13.93,64.296
		h-11.728l-7.982-8.711c0,0,4.023-7.647,5.478-15.381h-9.135c-0.874,4.16-3.207,8.203-3.207,8.203l-9.198-10.43
		c0,0,11.396-6.767,9.101-17.822c-1.411-6.826-7.939-13.339-17.738-11.767c-8.1,1.299-14.105,9.453-11.913,18.828
		c1.284,5.449,5.795,9.228,5.795,9.228s-15.106,8.74-12.88,22.764c0.259,1.641,0.933,3.379,1.997,5.088h-21.556l-14.608-64.296
		l-13.949,64.296H39.274l-23.817-95.55h29.505l13.534,65.522l14.609-65.522h25.584l14.892,65.385l13.598-65.385h29.304
		l13.534,65.522l14.608-65.522h25.584l14.892,65.385l13.534-65.385h29.358L244.18,260.871z"/>
</g>
</svg>
